<svg xmlns="http://www.w3.org/2000/svg" viewBox="0 0 1000 700" role="img" aria-label="Illustrated map of Reston Town Center drawn from OpenStreetMap data.">
<rect width="1000" height="700" fill="#eef2ed"/>
<g><path d="M-120.6,448.8 L-121.4,501.7 L-109.6,511.7 L-98.5,511.8 L24.5,513.3 L32.8,513.5 L46.0,502.0 L46.6,452.5 L33.6,437.7 L26.2,437.6 L-97.0,436.4 L-110.4,436.3 L-120.6,448.8 Z" fill="#c9d7c9"/><path d="M798.6,639.3 L799.8,539.3 L803.3,461.9 L805.1,459.6 L808.1,456.4 L821.1,454.9 L857.8,454.9 L866.9,456.8 L869.6,462.6 L871.2,472.5 L870.5,528.2 L854.3,618.8 L843.4,640.0 L837.0,649.5 L819.9,652.4 L808.9,651.3 L803.7,646.9 L798.6,639.3 Z" fill="#c9d7c9"/><path d="M801.4,395.8 L805.4,321.3 L842.6,319.9 L845.4,208.5 L891.3,214.8 L907.3,231.9 L888.8,404.7 L882.6,412.6 L878.9,415.3 L817.1,416.6 L804.2,414.5 L801.4,395.8 Z" fill="#c9d7c9"/></g><g><path d="M455.0,372.8 L454.7,413.4 L442.8,413.4 L418.7,413.5 L412.3,413.5 L394.0,413.6 L368.1,413.6 L351.4,413.7 L347.1,413.7 L346.9,411.9 L341.1,412.1 L341.6,339.0 L341.6,331.6 L433.7,332.9 L434.0,372.6 L455.0,372.8 Z" fill="#dce3dc" stroke="#c0cdc1" stroke-width="1"/><path d="M341.5,451.7 L341.4,468.1 L336.5,468.2 L336.1,484.3 L338.5,484.6 L338.4,494.8 L336.9,495.2 L336.8,506.3 L336.6,526.0 L337.6,526.0 L337.2,540.5 L335.4,540.2 L335.6,547.0 L334.6,547.0 L334.7,549.6 L334.5,554.6 L335.3,557.9 L337.7,560.8 L340.1,562.5 L345.0,563.9 L354.8,563.9 L354.9,561.6 L372.5,561.7 L389.9,561.7 L406.6,562.0 L420.6,562.1 L420.6,567.5 L431.3,567.8 L431.3,562.8 L450.4,563.1 L450.4,567.8 L461.0,568.0 L461.1,563.5 L476.6,563.6 L476.6,562.5 L490.3,562.6 L490.3,563.7 L517.3,564.2 L526.6,564.4 L526.6,565.8 L539.9,565.9 L540.1,560.9 L540.3,556.4 L538.7,556.4 L539.0,549.0 L539.6,548.9 L539.7,541.0 L540.6,541.0 L541.6,540.1 L541.6,536.4 L541.6,533.4 L540.6,532.5 L539.8,532.5 L539.8,528.7 L539.7,521.3 L539.8,515.7 L540.1,485.1 L537.4,485.1 L537.5,460.4 L509.4,460.1 L509.5,450.7 L501.1,450.6 L497.7,450.6 L476.9,450.4 L476.9,453.3 L475.0,453.2 L457.5,452.9 L457.6,450.2 L427.5,449.7 L427.5,452.8 L408.1,452.4 L408.1,449.3 L401.0,449.3 L375.0,449.2 L375.1,452.1 L341.5,451.7 Z" fill="#dce3dc" stroke="#c0cdc1" stroke-width="1"/><path d="M342.7,604.6 L342.6,640.7 L342.7,652.7 L500.3,654.3 L500.4,652.4 L512.0,652.5 L512.3,645.3 L542.4,645.7 L543.0,606.1 L538.9,605.3 L535.6,603.2 L533.4,600.0 L532.8,596.9 L494.9,596.5 L457.0,596.0 L435.2,595.8 L427.9,595.7 L411.5,595.6 L353.3,594.8 L352.7,598.2 L351.4,600.3 L349.4,602.1 L346.8,603.7 L342.7,604.6 Z" fill="#dce3dc" stroke="#c0cdc1" stroke-width="1"/><path d="M733.2,522.5 L733.3,515.3 L733.4,507.7 L733.6,483.0 L769.7,482.6 L769.7,467.9 L765.8,467.6 L761.6,466.1 L758.1,463.5 L755.7,460.0 L754.5,453.4 L744.1,453.5 L744.0,454.5 L733.8,454.7 L722.5,454.7 L722.6,453.4 L692.5,453.2 L692.5,454.6 L678.6,454.5 L678.5,460.0 L676.3,460.0 L633.6,459.3 L604.2,459.0 L603.2,519.2 L602.7,573.4 L676.7,574.6 L732.8,575.0 L760.8,575.3 L767.1,575.4 L767.4,548.2 L733.0,547.6 L733.2,522.5 Z" fill="#dce3dc" stroke="#c0cdc1" stroke-width="1"/><path d="M104.6,155.5 L103.9,213.0 L102.9,285.9 L185.1,286.8 L292.5,288.0 L294.2,157.3 L284.8,157.3 L284.9,149.2 L114.4,147.3 L114.3,155.6 L104.6,155.5 Z" fill="#dce3dc" stroke="#c0cdc1" stroke-width="1"/><path d="M367.6,167.0 L356.9,166.9 L356.3,220.2 L355.5,292.4 L403.1,292.8 L485.2,293.6 L485.3,283.9 L516.1,284.2 L516.3,268.8 L546.8,269.1 L547.2,226.6 L547.9,166.7 L486.2,166.2 L486.3,155.6 L367.8,154.6 L367.6,167.0 Z" fill="#dce3dc" stroke="#c0cdc1" stroke-width="1"/><path d="M214.5,411.7 L204.3,411.6 L204.7,360.0 L214.9,360.1 L232.6,360.2 L232.7,345.2 L252.3,345.3 L252.7,329.1 L293.5,329.3 L300.7,329.4 L300.7,345.5 L300.3,409.9 L282.8,409.9 L282.8,411.9 L254.2,411.8 L232.3,411.8 L222.4,411.7 L214.5,411.7 Z" fill="#dce3dc" stroke="#c0cdc1" stroke-width="1"/><path d="M82.0,328.4 L82.0,334.8 L81.5,412.3 L114.7,412.5 L136.9,412.6 L147.9,412.6 L179.5,412.8 L184.3,412.8 L184.6,362.6 L162.6,362.5 L162.8,348.3 L148.3,348.2 L148.4,328.7 L82.0,328.4 Z" fill="#dce3dc" stroke="#c0cdc1" stroke-width="1"/><path d="M601.9,173.5 L601.7,222.5 L621.4,222.7 L621.6,232.1 L753.6,234.4 L753.2,256.7 L800.5,257.3 L800.3,307.7 L815.2,307.8 L815.1,318.0 L837.5,318.7 L838.8,229.8 L828.6,229.5 L828.3,209.5 L778.0,202.0 L760.8,196.6 L730.3,196.5 L730.4,186.8 L696.2,174.4 L656.7,173.5 L601.9,173.5 Z" fill="#dce3dc" stroke="#c0cdc1" stroke-width="1"/><path d="M79.2,595.9 L79.6,620.2 L80.2,656.6 L80.2,665.4 L80.3,686.4 L298.0,688.3 L299.1,640.5 L299.8,597.5 L294.6,597.5 L189.7,596.5 L181.5,596.4 L149.5,596.1 L79.2,595.9 Z" fill="#dce3dc" stroke="#c0cdc1" stroke-width="1"/><path d="M76.9,444.0 L126.9,444.8 L137.6,445.0 L137.0,513.3 L136.6,552.1 L126.8,552.9 L126.9,556.2 L74.9,556.1 L76.6,457.2 L76.9,444.0 Z" fill="#dce3dc" stroke="#c0cdc1" stroke-width="1"/><path d="M556.4,472.2 L588.6,472.3 L587.8,519.9 L556.1,519.9 L556.4,472.2 Z" fill="#dce3dc" stroke="#c0cdc1" stroke-width="1"/><path d="M592.2,318.8 L591.8,373.8 L599.2,373.8 L606.5,374.8 L613.5,377.9 L619.5,382.2 L623.1,386.7 L626.0,391.4 L627.9,396.5 L629.4,401.9 L629.1,412.2 L688.4,412.4 L688.6,380.4 L686.1,380.3 L686.1,370.3 L646.1,332.3 L638.7,325.0 L635.4,322.0 L622.3,321.8 L622.1,318.9 L594.3,318.8 L592.2,318.8 Z" fill="#dce3dc" stroke="#c0cdc1" stroke-width="1"/><path d="M602.7,573.4 L601.6,635.3 L760.2,636.0 L760.4,621.1 L760.8,575.3 L732.8,575.0 L676.7,574.6 L602.7,573.4 Z" fill="#dce3dc" stroke="#c0cdc1" stroke-width="1"/><path d="M-13.0,169.3 L45.3,171.8 L43.3,212.5 L40.4,271.9 L-18.0,269.4 L-13.0,169.3 Z" fill="#dce3dc" stroke="#c0cdc1" stroke-width="1"/><path d="M242.0,446.0 L241.7,478.8 L241.4,514.4 L241.2,538.2 L241.1,545.5 L241.0,553.4 L249.8,554.3 L250.0,557.8 L302.1,558.8 L302.2,548.0 L302.4,532.1 L302.9,488.5 L303.4,446.9 L301.7,446.8 L244.3,446.1 L242.0,446.0 Z" fill="#dce3dc" stroke="#c0cdc1" stroke-width="1"/><path d="M163.8,445.6 L190.4,445.9 L218.3,446.2 L217.3,521.9 L217.1,538.1 L217.1,543.3 L215.1,543.3 L166.2,542.9 L162.6,542.9 L163.0,513.8 L163.8,445.6 Z" fill="#dce3dc" stroke="#c0cdc1" stroke-width="1"/><path d="M831.3,99.4 L845.1,100.1 L845.4,95.3 L873.5,96.6 L873.2,102.5 L880.6,102.8 L878.4,141.2 L862.0,140.4 L862.1,138.4 L829.3,136.9 L831.3,99.4 Z" fill="#dce3dc" stroke="#c0cdc1" stroke-width="1"/><path d="M747.0,91.6 L784.1,92.9 L793.0,93.2 L791.8,123.1 L766.1,122.2 L766.3,118.7 L745.9,118.0 L746.4,105.5 L747.0,91.6 Z" fill="#dce3dc" stroke="#c0cdc1" stroke-width="1"/><path d="M605.4,-37.1 L598.6,83.3 L614.6,84.1 L631.1,84.9 L633.6,38.8 L639.9,39.1 L640.7,23.7 L636.6,23.5 L639.1,-20.5 L641.9,-20.4 L642.7,-35.1 L628.1,-35.8 L627.9,-31.4 L620.6,-31.7 L620.9,-36.4 L605.4,-37.1 Z" fill="#dce3dc" stroke="#c0cdc1" stroke-width="1"/><path d="M648.1,-72.9 L670.4,-71.7 L674.3,-133.2 L696.4,-132.0 L697.0,-141.5 L719.9,-140.2 L720.1,-142.2 L736.2,-141.3 L736.6,-147.9 L857.8,-141.2 L858.4,-150.7 L885.7,-149.3 L879.4,-50.1 L647.4,-62.8 L648.1,-72.9 Z" fill="#dce3dc" stroke="#c0cdc1" stroke-width="1"/><path d="M985.1,301.4 L1018.2,300.7 L1018.6,214.9 L991.8,215.3 L985.1,301.4 Z" fill="#dce3dc" stroke="#c0cdc1" stroke-width="1"/><path d="M1047.2,481.2 L1106.4,481.9 L1109.1,398.3 L1048.4,396.9 L1047.2,481.2 Z" fill="#dce3dc" stroke="#c0cdc1" stroke-width="1"/><path d="M957.9,600.5 L970.3,603.5 L982.0,606.3 L986.1,607.1 L992.0,584.8 L988.9,584.1 L978.7,581.8 L963.6,578.3 L957.9,600.5 Z" fill="#dce3dc" stroke="#c0cdc1" stroke-width="1"/><path d="M971.9,556.4 L998.3,559.8 L999.5,553.3 L1009.7,554.9 L1013.9,562.6 L1023.9,563.5 L1028.6,558.6 L1040.5,560.2 L1039.5,567.3 L1064.9,571.7 L1075.2,521.7 L1049.6,518.2 L1048.4,524.6 L1007.9,517.7 L1008.9,510.8 L981.3,505.6 L971.9,556.4 Z" fill="#dce3dc" stroke="#c0cdc1" stroke-width="1"/><path d="M1039.8,747.3 L1093.8,762.6 L1095.2,757.7 L1097.0,758.2 L1101.6,742.8 L1099.8,742.1 L1101.9,737.3 L1092.5,734.6 L1099.3,713.9 L1101.9,714.8 L1103.7,710.1 L1105.8,711.2 L1110.1,697.1 L1108.3,696.4 L1109.5,691.6 L1106.0,691.1 L1112.8,669.6 L1121.6,672.1 L1123.5,667.5 L1125.1,668.0 L1130.1,652.9 L1128.4,652.0 L1129.5,647.3 L1075.7,632.6 L1074.2,637.1 L1072.4,636.7 L1067.6,652.3 L1069.2,652.8 L1067.7,657.2 L1076.7,659.9 L1056.3,725.1 L1047.3,722.6 L1045.6,727.2 L1044.0,726.8 L1039.3,742.1 L1040.8,742.8 L1039.8,747.3 Z" fill="#dce3dc" stroke="#c0cdc1" stroke-width="1"/><path d="M939.1,676.1 L964.0,683.0 L966.9,673.4 L1005.6,684.0 L1002.6,693.3 L1029.0,700.9 L1047.6,649.8 L1018.4,642.5 L1014.6,653.3 L1007.5,650.9 L1009.1,644.3 L1005.0,637.6 L993.9,634.1 L985.3,637.6 L983.5,642.9 L977.4,641.4 L980.5,629.6 L955.3,622.4 L939.1,676.1 Z" fill="#dce3dc" stroke="#c0cdc1" stroke-width="1"/><path d="M294.5,-79.1 L321.7,-75.5 L321.7,-61.2 L330.0,-61.2 L330.4,-64.5 L345.0,-64.9 L367.5,-67.8 L367.1,-59.4 L377.3,-58.7 L377.7,-64.1 L401.0,-63.8 L402.2,-33.8 L397.4,-33.5 L397.0,-26.2 L400.6,-26.2 L400.6,-3.9 L376.9,-3.2 L376.1,-9.0 L354.8,-9.4 L354.8,-4.3 L317.4,-3.6 L317.4,-9.0 L296.1,-9.0 L296.1,-5.0 L271.2,-4.3 L269.3,-35.3 L273.6,-35.3 L273.2,-58.7 L294.5,-58.7 L294.5,-79.1 Z" fill="#dce3dc" stroke="#c0cdc1" stroke-width="1"/><path d="M119.8,-71.6 L120.1,-45.7 L170.4,-46.2 L170.4,-49.8 L201.2,-50.1 L201.1,-63.7 L189.4,-63.6 L188.9,-100.5 L154.1,-100.1 L154.3,-79.7 L159.5,-79.7 L159.6,-72.0 L119.8,-71.6 Z" fill="#dce3dc" stroke="#c0cdc1" stroke-width="1"/><path d="M187.4,16.9 L188.9,65.4 L239.0,65.0 L237.8,39.8 L215.4,39.5 L214.2,16.1 L187.4,16.9 Z" fill="#dce3dc" stroke="#c0cdc1" stroke-width="1"/><path d="M442.7,21.7 L447.3,17.4 L527.1,19.2 L537.1,19.4 L545.9,26.9 L545.5,42.3 L536.3,49.6 L527.9,49.4 L484.4,48.4 L476.8,54.2 L476.6,64.8 L470.6,69.5 L444.9,68.9 L441.5,65.0 L442.7,21.7 Z" fill="#dce3dc" stroke="#c0cdc1" stroke-width="1"/><path d="M267.4,727.1 L287.5,726.0 L288.7,728.6 L291.9,728.6 L293.2,733.8 L277.6,737.1 L276.6,733.0 L269.3,734.5 L267.4,727.1 Z" fill="#dce3dc" stroke="#c0cdc1" stroke-width="1"/><path d="M626.8,893.7 L580.0,893.7 L580.1,851.0 L580.1,844.6 L580.1,812.5 L585.5,812.5 L585.5,806.6 L707.4,806.8 L716.2,806.8 L716.0,893.7 L687.0,893.6 L687.0,868.3 L648.4,868.2 L648.4,873.3 L626.9,873.3 L626.8,893.7 Z" fill="#dce3dc" stroke="#c0cdc1" stroke-width="1"/><path d="M-114.8,540.6 L-37.0,541.4 L36.0,542.2 L35.0,623.8 L-1.9,623.4 L-78.0,621.1 L-115.8,620.7 L-114.8,540.6 Z" fill="#dce3dc" stroke="#c0cdc1" stroke-width="1"/><path d="M-115.8,620.7 L-78.0,621.1 L-1.9,623.4 L35.0,623.8 L35.0,641.8 L35.0,676.8 L25.7,676.6 L25.9,683.7 L-107.4,683.0 L-108.6,674.6 L-116.1,674.6 L-116.3,639.7 L-115.8,620.7 Z" fill="#dce3dc" stroke="#c0cdc1" stroke-width="1"/><path d="M1025.8,-52.8 L1024.0,25.6 L1023.0,72.3 L1021.8,137.5 L1115.1,139.0 L1115.8,100.5 L1064.2,99.6 L1064.7,73.0 L1065.6,26.4 L1066.5,-12.6 L1117.4,-11.7 L1118.3,-51.1 L1025.8,-52.8 Z" fill="#dce3dc" stroke="#c0cdc1" stroke-width="1"/><path d="M-7.9,412.3 L3.4,412.4 L19.2,412.5 L38.9,412.7 L40.7,412.8 L41.0,386.5 L41.4,349.7 L41.6,328.2 L-7.0,327.8 L-7.5,371.8 L-7.9,412.3 Z" fill="#dce3dc" stroke="#c0cdc1" stroke-width="1"/><path d="M-62.9,371.2 L-7.5,371.8 L-7.9,412.3 L-12.7,412.3 L-19.4,412.2 L-23.5,412.2 L-30.8,412.1 L-63.3,411.8 L-62.9,371.2 Z" fill="#dce3dc" stroke="#c0cdc1" stroke-width="1"/><path d="M40.6,38.3 L39.4,77.5 L-21.7,75.9 L-20.8,46.1 L7.1,46.8 L7.4,37.4 L40.6,38.3 Z" fill="#dce3dc" stroke="#c0cdc1" stroke-width="1"/><path d="M44.3,-38.2 L42.4,0.7 L8.7,-0.7 L8.6,-8.4 L-19.1,-9.6 L-17.7,-40.2 L2.5,-39.6 L44.3,-38.2 Z" fill="#dce3dc" stroke="#c0cdc1" stroke-width="1"/><path d="M733.4,507.7 L733.3,515.3 L733.2,522.5 L764.7,522.7 L764.9,508.0 L733.4,507.7 Z" fill="#dce3dc" stroke="#c0cdc1" stroke-width="1"/><path d="M45.3,171.8 L45.9,153.1 L40.2,153.4 L40.5,146.6 L-15.9,150.7 L-15.7,152.7 L-40.8,152.5 L-41.6,173.7 L-37.1,174.9 L-42.3,291.4 L41.3,293.7 L42.0,272.0 L40.4,271.9 L-18.0,269.4 L-13.0,169.3 L45.3,171.8 Z" fill="#dce3dc" stroke="#c0cdc1" stroke-width="1"/><path d="M710.8,334.7 L749.0,335.4 L748.9,342.4 L757.8,342.6 L757.9,339.5 L768.1,339.7 L766.8,397.1 L756.4,396.9 L756.0,411.9 L736.5,411.5 L736.4,416.9 L709.1,416.4 L710.8,334.7 Z" fill="#dce3dc" stroke="#c0cdc1" stroke-width="1"/><path d="M512.1,322.9 L458.7,373.5 L458.6,382.8 L456.5,382.7 L456.1,413.5 L465.8,413.5 L481.7,413.6 L493.6,413.6 L509.5,413.7 L515.0,413.7 L515.4,404.5 L518.9,395.6 L523.2,389.7 L528.9,384.6 L534.5,381.4 L539.5,379.3 L545.9,377.9 L556.6,378.0 L556.6,367.3 L556.9,331.5 L557.0,321.1 L523.3,320.7 L523.3,323.0 L512.1,322.9 Z" fill="#dce3dc" stroke="#c0cdc1" stroke-width="1"/><path d="M601.7,222.5 L601.6,227.1 L602.7,264.7 L602.5,272.2 L667.9,291.4 L704.5,291.8 L727.1,291.9 L727.2,296.9 L752.6,296.9 L753.2,256.7 L753.6,234.4 L621.6,232.1 L621.4,222.7 L601.7,222.5 Z" fill="#dce3dc" stroke="#c0cdc1" stroke-width="1"/><path d="M137.6,445.0 L151.0,445.3 L163.8,445.6 L163.0,513.8 L137.0,513.3 L137.6,445.0 Z" fill="#dce3dc" stroke="#c0cdc1" stroke-width="1"/></g><g><path d="M60.4,576.5 L77.4,576.7 L306.7,578.8 L323.3,579.4 L335.1,579.5 L531.4,581.5 L570.4,581.9" fill="none" stroke="#c6d1c7" stroke-width="20" stroke-linecap="round" stroke-linejoin="round"/><path d="M786.8,339.7 L786.0,331.6 L784.5,325.9 L777.6,320.2 L774.0,318.7 L769.7,318.0 L764.5,317.8 L760.9,317.6 L705.9,316.5 L696.5,316.0 L685.0,314.7 L682.0,314.4 L667.9,313.4 L653.3,309.9 L623.1,300.0 L601.4,294.2 L594.7,293.4 L574.9,293.8 L554.1,294.1 L543.9,294.2 L520.5,300.4 L500.9,306.9 L483.2,311.2 L468.4,313.1 L403.1,313.7 L341.9,313.1 L324.5,312.9 L307.1,311.6 L184.9,310.0 L80.7,308.7 L62.6,308.7" fill="none" stroke="#c6d1c7" stroke-width="20" stroke-linecap="round" stroke-linejoin="round"/><path d="M65.2,95.8 L64.9,120.2 L64.8,137.9 L63.7,212.6 L62.6,296.8 L62.6,308.7 L62.3,319.8 L60.9,414.3 L61.4,427.3 L62.1,441.7 L61.3,512.0 L61.2,522.4 L60.4,576.5 L58.6,643.3 L57.7,665.2" fill="none" stroke="#c6d1c7" stroke-width="20" stroke-linecap="round" stroke-linejoin="round"/><path d="M325.5,116.2 L325.4,130.9 L325.1,219.8 L324.7,297.3 L324.5,312.9 L324.3,324.0 L324.2,416.5 L324.2,428.5 L324.0,445.1 L323.4,568.2 L323.3,579.4 L323.4,592.7 L323.4,640.4 L323.1,684.7 L323.1,706.8" fill="none" stroke="#c6d1c7" stroke-width="20" stroke-linecap="round" stroke-linejoin="round"/><path d="M574.9,293.8 L583.9,279.1 L585.1,227.4 L585.9,150.7 L586.1,146.1 L586.5,131.7" fill="none" stroke="#c6d1c7" stroke-width="15" stroke-linecap="round" stroke-linejoin="round"/><path d="M38.2,-119.5 L-0.3,-117.0 L-37.4,-115.0 L-93.6,-116.0 L-145.6,-128.5 L-174.8,-142.4 L-181.6,-143.9 L-187.3,-140.8 L-248.9,-32.4 L-265.4,10.1 L-263.7,23.2 L-255.7,33.4 L-220.9,28.1 L-213.5,24.6 L-198.3,17.4 L-40.5,8.1 L66.3,16.4" fill="none" stroke="#c6d1c7" stroke-width="17" stroke-linecap="round" stroke-linejoin="round"/><path d="M324.2,428.5 L335.3,428.8 L442.4,430.1 L513.8,431.0" fill="none" stroke="#c6d1c7" stroke-width="20" stroke-linecap="round" stroke-linejoin="round"/><path d="M785.5,434.8 L800.1,435.1 L878.1,436.0 L901.2,435.9" fill="none" stroke="#c6d1c7" stroke-width="20" stroke-linecap="round" stroke-linejoin="round"/><path d="M962.0,169.0 L928.0,168.6" fill="none" stroke="#c6d1c7" stroke-width="33" stroke-linecap="round" stroke-linejoin="round"/><path d="M1022.7,490.8 L1032.6,494.7 L1061.0,500.9 L1091.8,501.3 L1098.0,499.7 L1130.0,489.2 L1133.0,487.8 L1186.9,462.1 L1197.7,456.9" fill="none" stroke="#c6d1c7" stroke-width="17" stroke-linecap="round" stroke-linejoin="round"/><path d="M567.7,129.2 L567.7,145.4 L567.7,151.1 L566.9,227.0 L565.7,266.4 L566.7,278.9 L574.9,293.8" fill="none" stroke="#c6d1c7" stroke-width="15" stroke-linecap="round" stroke-linejoin="round"/><path d="M867.9,783.1 L879.9,731.6" fill="none" stroke="#c6d1c7" stroke-width="40" stroke-linecap="round" stroke-linejoin="round"/><path d="M847.0,724.7 L834.8,776.5" fill="none" stroke="#c6d1c7" stroke-width="40" stroke-linecap="round" stroke-linejoin="round"/><path d="M1039.0,718.0 L1059.3,651.9 L1061.8,641.9 L1068.5,615.4 L1075.2,589.0 L1076.4,584.8 L1098.0,499.7" fill="none" stroke="#c6d1c7" stroke-width="17" stroke-linecap="round" stroke-linejoin="round"/><path d="M888.1,695.4 L909.4,697.5 L929.4,699.4 L940.4,702.0 L951.1,704.8 L957.6,708.4 L962.4,714.1 L1016.1,731.5 L1026.0,731.5 L1033.1,726.8 L1039.0,718.0" fill="none" stroke="#c6d1c7" stroke-width="17" stroke-linecap="round" stroke-linejoin="round"/><path d="M892.5,679.7 L902.0,637.3 L909.8,602.2 L924.0,524.4 L931.1,473.2 L932.3,464.5 L933.4,456.6 L943.3,388.1" fill="none" stroke="#c6d1c7" stroke-width="40" stroke-linecap="round" stroke-linejoin="round"/><path d="M782.5,658.7 L782.8,644.5 L783.0,620.8 L784.2,533.9 L784.4,494.9 L785.3,452.4 L785.5,434.8 L785.7,418.9 L786.4,371.1 L786.8,339.7" fill="none" stroke="#c6d1c7" stroke-width="20" stroke-linecap="round" stroke-linejoin="round"/><path d="M572.8,675.8 L570.5,658.6 L570.3,643.2 L570.3,635.9 L570.4,581.9 L570.6,555.5" fill="none" stroke="#c6d1c7" stroke-width="17" stroke-linecap="round" stroke-linejoin="round"/><path d="M1039.0,718.0 L961.7,696.9 L930.2,689.4 L910.6,684.4 L892.5,679.7" fill="none" stroke="#c6d1c7" stroke-width="17" stroke-linecap="round" stroke-linejoin="round"/><path d="M57.7,665.2 L49.7,678.4 L49.9,691.1 L50.0,699.1 L59.2,709.0" fill="none" stroke="#c6d1c7" stroke-width="20" stroke-linecap="round" stroke-linejoin="round"/><path d="M59.2,709.0 L68.5,699.1 L68.4,691.2 L68.4,678.3 L57.7,665.2" fill="none" stroke="#c6d1c7" stroke-width="20" stroke-linecap="round" stroke-linejoin="round"/><path d="M758.8,674.8 L812.0,682.5 L836.5,686.6 L855.4,690.3" fill="none" stroke="#c6d1c7" stroke-width="22" stroke-linecap="round" stroke-linejoin="round"/><path d="M64.9,120.2 L89.2,118.7 L126.7,116.5 L209.8,115.4 L304.0,115.7 L325.5,116.2 L352.3,116.8 L421.0,119.1" fill="none" stroke="#c6d1c7" stroke-width="33" stroke-linecap="round" stroke-linejoin="round"/><path d="M859.4,672.9 L842.0,669.3 L806.9,662.0 L782.5,658.7 L766.7,656.5 L733.4,653.5 L701.5,651.8 L663.0,651.1 L626.7,652.5 L587.6,656.5 L570.5,658.6 L549.7,661.1 L506.8,669.3 L442.5,682.8 L381.0,699.7" fill="none" stroke="#c6d1c7" stroke-width="22" stroke-linecap="round" stroke-linejoin="round"/><path d="M-221.2,422.9 L-145.7,425.4 L-131.3,425.7 L-116.9,425.9 L-37.2,426.9 L45.2,427.7 L61.4,427.3 L76.8,426.6 L193.1,427.4 L307.6,428.5 L324.2,428.5" fill="none" stroke="#c6d1c7" stroke-width="20" stroke-linecap="round" stroke-linejoin="round"/><path d="M955.9,-194.7 L953.7,-154.1 L946.8,-63.0 L942.9,-29.6" fill="none" stroke="#c6d1c7" stroke-width="40" stroke-linecap="round" stroke-linejoin="round"/><path d="M964.7,46.5 L966.3,-33.8 L969.5,-91.8 L976.5,-193.5" fill="none" stroke="#c6d1c7" stroke-width="40" stroke-linecap="round" stroke-linejoin="round"/><path d="M942.9,-29.6 L937.6,30.3 L936.6,51.7 L931.6,117.9" fill="none" stroke="#c6d1c7" stroke-width="40" stroke-linecap="round" stroke-linejoin="round"/><path d="M568.3,107.5 L555.3,106.6 L545.5,105.5 L480.0,99.9 L321.4,92.9 L204.8,92.6" fill="none" stroke="#c6d1c7" stroke-width="33" stroke-linecap="round" stroke-linejoin="round"/><path d="M738.8,138.4 L699.6,129.1 L607.4,112.5 L598.3,111.1 L587.2,109.5" fill="none" stroke="#c6d1c7" stroke-width="33" stroke-linecap="round" stroke-linejoin="round"/><path d="M743.8,164.3 L785.2,174.1 L837.2,185.2 L879.7,189.5 L904.4,191.1 L926.3,190.9" fill="none" stroke="#c6d1c7" stroke-width="33" stroke-linecap="round" stroke-linejoin="round"/><path d="M-133.1,520.5 L-118.4,520.7 L-109.0,520.7 L-38.4,521.4 L32.4,522.2 L42.5,522.3 L61.2,522.4" fill="none" stroke="#c6d1c7" stroke-width="17" stroke-linecap="round" stroke-linejoin="round"/><path d="M120.5,710.0 L185.2,710.4 L218.4,710.6 L252.9,710.1" fill="none" stroke="#c6d1c7" stroke-width="22" stroke-linecap="round" stroke-linejoin="round"/><path d="M928.0,168.6 L907.3,167.0 L857.8,164.1 L809.0,156.1 L738.8,138.4" fill="none" stroke="#c6d1c7" stroke-width="33" stroke-linecap="round" stroke-linejoin="round"/><path d="M928.0,168.6 L926.3,190.9" fill="none" stroke="#c6d1c7" stroke-width="40" stroke-linecap="round" stroke-linejoin="round"/><path d="M962.0,169.0 L962.7,153.1 L963.9,131.1 L964.7,46.5" fill="none" stroke="#c6d1c7" stroke-width="40" stroke-linecap="round" stroke-linejoin="round"/><path d="M926.3,190.9 L960.5,189.5" fill="none" stroke="#c6d1c7" stroke-width="33" stroke-linecap="round" stroke-linejoin="round"/><path d="M917.0,301.4 L911.6,343.0 L904.9,409.1 L901.2,435.9" fill="none" stroke="#c6d1c7" stroke-width="40" stroke-linecap="round" stroke-linejoin="round"/><path d="M59.2,709.0 L120.5,710.0" fill="none" stroke="#c6d1c7" stroke-width="22" stroke-linecap="round" stroke-linejoin="round"/><path d="M273.6,709.8 L305.7,708.0 L323.1,706.8" fill="none" stroke="#c6d1c7" stroke-width="22" stroke-linecap="round" stroke-linejoin="round"/><path d="M855.4,690.3 L852.4,702.7 L847.0,724.7" fill="none" stroke="#c6d1c7" stroke-width="40" stroke-linecap="round" stroke-linejoin="round"/><path d="M855.4,690.3 L888.1,695.4" fill="none" stroke="#c6d1c7" stroke-width="22" stroke-linecap="round" stroke-linejoin="round"/><path d="M323.1,706.8 L381.0,699.7" fill="none" stroke="#c6d1c7" stroke-width="22" stroke-linecap="round" stroke-linejoin="round"/><path d="M879.9,731.6 L885.7,707.7 L888.1,695.4" fill="none" stroke="#c6d1c7" stroke-width="40" stroke-linecap="round" stroke-linejoin="round"/><path d="M586.5,131.7 L600.6,133.9 L639.9,140.5 L708.2,154.2 L743.8,164.3" fill="none" stroke="#c6d1c7" stroke-width="33" stroke-linecap="round" stroke-linejoin="round"/><path d="M960.5,189.5 L980.5,187.7 L994.5,186.7 L1062.9,186.4 L1098.4,184.6 L1121.1,183.2 L1143.1,181.1" fill="none" stroke="#c6d1c7" stroke-width="22" stroke-linecap="round" stroke-linejoin="round"/><path d="M888.1,695.4 L892.5,679.7" fill="none" stroke="#c6d1c7" stroke-width="40" stroke-linecap="round" stroke-linejoin="round"/><path d="M892.5,679.7 L859.4,672.9" fill="none" stroke="#c6d1c7" stroke-width="22" stroke-linecap="round" stroke-linejoin="round"/><path d="M859.4,672.9 L855.4,690.3" fill="none" stroke="#c6d1c7" stroke-width="40" stroke-linecap="round" stroke-linejoin="round"/><path d="M834.8,776.5 L821.2,834.3 L810.1,885.9" fill="none" stroke="#c6d1c7" stroke-width="40" stroke-linecap="round" stroke-linejoin="round"/><path d="M68.7,-156.3 L66.3,16.4 L65.5,81.1 L65.2,95.8" fill="none" stroke="#c6d1c7" stroke-width="20" stroke-linecap="round" stroke-linejoin="round"/><path d="M931.1,473.2 L948.0,481.8 L982.1,488.0 L1013.7,494.1 L1022.7,490.8" fill="none" stroke="#c6d1c7" stroke-width="17" stroke-linecap="round" stroke-linejoin="round"/><path d="M1022.7,490.8 L1014.0,480.1 L985.4,474.2 L948.0,467.5 L931.1,473.2" fill="none" stroke="#c6d1c7" stroke-width="17" stroke-linecap="round" stroke-linejoin="round"/><path d="M960.5,189.5 L962.0,169.0" fill="none" stroke="#c6d1c7" stroke-width="40" stroke-linecap="round" stroke-linejoin="round"/><path d="M1067.2,169.8 L980.0,170.4 L962.0,169.0" fill="none" stroke="#c6d1c7" stroke-width="22" stroke-linecap="round" stroke-linejoin="round"/><path d="M1143.1,181.1 L1099.6,171.9 L1067.2,169.8" fill="none" stroke="#c6d1c7" stroke-width="22" stroke-linecap="round" stroke-linejoin="round"/><path d="M887.8,524.4 L882.7,557.0 L864.6,651.3 L859.4,672.9" fill="none" stroke="#c6d1c7" stroke-width="40" stroke-linecap="round" stroke-linejoin="round"/><path d="M943.3,388.1 L956.7,254.7 L960.5,189.5" fill="none" stroke="#c6d1c7" stroke-width="40" stroke-linecap="round" stroke-linejoin="round"/><path d="M931.6,117.9 L929.0,150.6 L928.0,168.6" fill="none" stroke="#c6d1c7" stroke-width="40" stroke-linecap="round" stroke-linejoin="round"/><path d="M381.0,699.7 L443.2,693.7 L550.2,678.8 L572.8,675.8" fill="none" stroke="#c6d1c7" stroke-width="22" stroke-linecap="round" stroke-linejoin="round"/><path d="M-138.2,705.8 L8.4,708.1" fill="none" stroke="#c6d1c7" stroke-width="22" stroke-linecap="round" stroke-linejoin="round"/><path d="M926.3,190.9 L922.2,254.7 L917.0,301.4" fill="none" stroke="#c6d1c7" stroke-width="40" stroke-linecap="round" stroke-linejoin="round"/><path d="M901.2,435.9 L897.2,456.2 L892.3,488.8" fill="none" stroke="#c6d1c7" stroke-width="40" stroke-linecap="round" stroke-linejoin="round"/><path d="M892.3,488.8 L887.8,524.4" fill="none" stroke="#c6d1c7" stroke-width="40" stroke-linecap="round" stroke-linejoin="round"/><path d="M567.7,129.2 L576.7,130.1 L586.5,131.7" fill="none" stroke="#c6d1c7" stroke-width="33" stroke-linecap="round" stroke-linejoin="round"/><path d="M587.2,109.5 L577.0,108.1 L568.3,107.5" fill="none" stroke="#c6d1c7" stroke-width="33" stroke-linecap="round" stroke-linejoin="round"/><path d="M568.3,107.5 L567.7,129.2" fill="none" stroke="#c6d1c7" stroke-width="15" stroke-linecap="round" stroke-linejoin="round"/><path d="M587.2,109.5 L577.4,99.2" fill="none" stroke="#c6d1c7" stroke-width="15" stroke-linecap="round" stroke-linejoin="round"/><path d="M586.5,131.7 L587.2,109.5" fill="none" stroke="#c6d1c7" stroke-width="15" stroke-linecap="round" stroke-linejoin="round"/><path d="M577.4,99.2 L568.3,107.5" fill="none" stroke="#c6d1c7" stroke-width="15" stroke-linecap="round" stroke-linejoin="round"/><path d="M579.0,2.1 L577.7,94.0 L577.4,99.2" fill="none" stroke="#c6d1c7" stroke-width="22" stroke-linecap="round" stroke-linejoin="round"/><path d="M421.0,119.1 L483.3,123.5 L544.8,127.2 L554.2,127.7 L567.7,129.2" fill="none" stroke="#c6d1c7" stroke-width="33" stroke-linecap="round" stroke-linejoin="round"/><path d="M204.8,92.6 L101.8,94.8 L89.8,95.1 L65.2,95.8" fill="none" stroke="#c6d1c7" stroke-width="33" stroke-linecap="round" stroke-linejoin="round"/><path d="M65.2,95.8 L40.6,97.8 L-28.4,101.8 L-110.7,107.3 L-183.8,109.9" fill="none" stroke="#c6d1c7" stroke-width="33" stroke-linecap="round" stroke-linejoin="round"/><path d="M-91.1,129.4 L-29.2,125.8 L35.3,121.0 L42.4,120.8 L64.9,120.2" fill="none" stroke="#c6d1c7" stroke-width="33" stroke-linecap="round" stroke-linejoin="round"/><path d="M847.2,870.6 L857.4,830.0 L865.9,791.8 L867.9,783.1" fill="none" stroke="#c6d1c7" stroke-width="40" stroke-linecap="round" stroke-linejoin="round"/><path d="M62.6,308.7 L43.9,308.6" fill="none" stroke="#c6d1c7" stroke-width="17" stroke-linecap="round" stroke-linejoin="round"/><path d="M633.6,432.6 L693.2,433.3 L771.8,434.2 L785.5,434.8" fill="none" stroke="#c6d1c7" stroke-width="20" stroke-linecap="round" stroke-linejoin="round"/><path d="M513.8,431.0 L548.7,431.4 L595.5,432.1 L633.6,432.6" fill="none" stroke="#c6d1c7" stroke-width="20" stroke-linecap="round" stroke-linejoin="round"/><path d="M43.9,308.6 L-55.5,307.5 L-110.4,306.9 L-116.2,306.8" fill="none" stroke="#c6d1c7" stroke-width="17" stroke-linecap="round" stroke-linejoin="round"/><path d="M8.4,708.1 L59.2,709.0" fill="none" stroke="#c6d1c7" stroke-width="22" stroke-linecap="round" stroke-linejoin="round"/><path d="M252.9,710.1 L273.6,709.8" fill="none" stroke="#c6d1c7" stroke-width="22" stroke-linecap="round" stroke-linejoin="round"/><path d="M617.6,-176.1 L613.0,-162.6 L598.4,-120.2 L589.7,-92.9 L582.0,-60.4 L579.6,-32.4 L579.0,2.1" fill="none" stroke="#c6d1c7" stroke-width="22" stroke-linecap="round" stroke-linejoin="round"/><path d="M572.8,675.8 L603.8,674.4 L635.5,672.0 L667.3,670.8 L721.1,671.9" fill="none" stroke="#c6d1c7" stroke-width="22" stroke-linecap="round" stroke-linejoin="round"/><path d="M721.1,671.9 L741.0,673.7 L758.8,674.8" fill="none" stroke="#c6d1c7" stroke-width="22" stroke-linecap="round" stroke-linejoin="round"/></g><g><path d="M60.4,576.5 L77.4,576.7 L306.7,578.8 L323.3,579.4 L335.1,579.5 L531.4,581.5 L570.4,581.9" fill="none" stroke="#f7f9f6" stroke-width="17" stroke-linecap="round" stroke-linejoin="round"/><path d="M786.8,339.7 L786.0,331.6 L784.5,325.9 L777.6,320.2 L774.0,318.7 L769.7,318.0 L764.5,317.8 L760.9,317.6 L705.9,316.5 L696.5,316.0 L685.0,314.7 L682.0,314.4 L667.9,313.4 L653.3,309.9 L623.1,300.0 L601.4,294.2 L594.7,293.4 L574.9,293.8 L554.1,294.1 L543.9,294.2 L520.5,300.4 L500.9,306.9 L483.2,311.2 L468.4,313.1 L403.1,313.7 L341.9,313.1 L324.5,312.9 L307.1,311.6 L184.9,310.0 L80.7,308.7 L62.6,308.7" fill="none" stroke="#f7f9f6" stroke-width="17" stroke-linecap="round" stroke-linejoin="round"/><path d="M65.2,95.8 L64.9,120.2 L64.8,137.9 L63.7,212.6 L62.6,296.8 L62.6,308.7 L62.3,319.8 L60.9,414.3 L61.4,427.3 L62.1,441.7 L61.3,512.0 L61.2,522.4 L60.4,576.5 L58.6,643.3 L57.7,665.2" fill="none" stroke="#f7f9f6" stroke-width="17" stroke-linecap="round" stroke-linejoin="round"/><path d="M325.5,116.2 L325.4,130.9 L325.1,219.8 L324.7,297.3 L324.5,312.9 L324.3,324.0 L324.2,416.5 L324.2,428.5 L324.0,445.1 L323.4,568.2 L323.3,579.4 L323.4,592.7 L323.4,640.4 L323.1,684.7 L323.1,706.8" fill="none" stroke="#f7f9f6" stroke-width="17" stroke-linecap="round" stroke-linejoin="round"/><path d="M574.9,293.8 L583.9,279.1 L585.1,227.4 L585.9,150.7 L586.1,146.1 L586.5,131.7" fill="none" stroke="#f7f9f6" stroke-width="12" stroke-linecap="round" stroke-linejoin="round"/><path d="M38.2,-119.5 L-0.3,-117.0 L-37.4,-115.0 L-93.6,-116.0 L-145.6,-128.5 L-174.8,-142.4 L-181.6,-143.9 L-187.3,-140.8 L-248.9,-32.4 L-265.4,10.1 L-263.7,23.2 L-255.7,33.4 L-220.9,28.1 L-213.5,24.6 L-198.3,17.4 L-40.5,8.1 L66.3,16.4" fill="none" stroke="#f7f9f6" stroke-width="14" stroke-linecap="round" stroke-linejoin="round"/><path d="M324.2,428.5 L335.3,428.8 L442.4,430.1 L513.8,431.0" fill="none" stroke="#f7f9f6" stroke-width="17" stroke-linecap="round" stroke-linejoin="round"/><path d="M785.5,434.8 L800.1,435.1 L878.1,436.0 L901.2,435.9" fill="none" stroke="#f7f9f6" stroke-width="17" stroke-linecap="round" stroke-linejoin="round"/><path d="M545.4,1002.9 L544.6,989.0 L565.5,987.9 L564.2,968.7 L561.0,919.2 L556.4,848.9 L551.7,787.3 L552.2,784.4 L550.5,767.1 L550.1,763.4" fill="none" stroke="#e4ebe4" stroke-width="4" stroke-linecap="round" stroke-linejoin="round" stroke-dasharray='5 6'/><path d="M45.2,414.1 L45.2,427.7 L45.1,441.7" fill="none" stroke="#e4ebe4" stroke-width="4" stroke-linecap="round" stroke-linejoin="round" stroke-dasharray='5 6'/><path d="M45.1,441.7 L62.1,441.7 L76.3,441.7" fill="none" stroke="#e4ebe4" stroke-width="4" stroke-linecap="round" stroke-linejoin="round" stroke-dasharray='5 6'/><path d="M545.4,592.6 L531.4,592.5 L347.0,591.1 L338.9,594.7 L339.3,598.3 L340.2,640.6 L339.6,677.4 L341.8,680.8 L345.5,683.5" fill="none" stroke="#e4ebe4" stroke-width="4" stroke-linecap="round" stroke-linejoin="round" stroke-dasharray='5 6'/><path d="M442.3,423.4 L442.4,430.1 L442.4,441.1" fill="none" stroke="#e4ebe4" stroke-width="4" stroke-linecap="round" stroke-linejoin="round" stroke-dasharray='5 6'/><path d="M194.3,322.2 L193.5,415.3 L193.3,420.6" fill="none" stroke="#e4ebe4" stroke-width="4" stroke-linecap="round" stroke-linejoin="round" stroke-dasharray='5 6'/><path d="M800.2,415.9 L785.7,418.9 L771.6,421.8" fill="none" stroke="#e4ebe4" stroke-width="4" stroke-linecap="round" stroke-linejoin="round" stroke-dasharray='5 6'/><path d="M548.6,424.1 L548.7,431.4 L548.4,446.7 L548.4,448.8 L546.8,532.1 L546.0,566.8" fill="none" stroke="#e4ebe4" stroke-width="4" stroke-linecap="round" stroke-linejoin="round" stroke-dasharray='5 6'/><path d="M333.4,569.2 L335.1,579.5 L338.9,594.7" fill="none" stroke="#e4ebe4" stroke-width="4" stroke-linecap="round" stroke-linejoin="round" stroke-dasharray='5 6'/><path d="M335.3,445.2 L335.3,428.8 L335.3,416.7" fill="none" stroke="#e4ebe4" stroke-width="4" stroke-linecap="round" stroke-linejoin="round" stroke-dasharray='5 6'/><path d="M595.7,424.3 L595.5,432.1" fill="none" stroke="#e4ebe4" stroke-width="4" stroke-linecap="round" stroke-linejoin="round" stroke-dasharray='5 6'/><path d="M340.9,324.4 L349.8,327.3 L464.8,329.1 L492.0,324.2 L520.5,317.3 L556.7,316.8 L563.7,316.4 L565.3,314.1 L569.1,311.6 L574.5,310.5 L579.0,311.1 L582.7,313.4 L586.4,317.3 L593.0,317.7 L630.6,317.4 L657.5,325.3 L670.3,327.5 L680.1,328.3 L690.2,329.9 L701.9,330.0 L730.7,330.8 L764.5,331.8 L771.0,332.6 L772.5,340.8 L772.1,370.7 L771.4,413.4 L769.9,420.1" fill="none" stroke="#e4ebe4" stroke-width="4" stroke-linecap="round" stroke-linejoin="round" stroke-dasharray='5 6'/><path d="M77.2,414.6 L76.8,426.6 L76.3,441.7" fill="none" stroke="#e4ebe4" stroke-width="4" stroke-linecap="round" stroke-linejoin="round" stroke-dasharray='5 6'/><path d="M307.6,416.3 L307.6,428.5 L307.4,445.1" fill="none" stroke="#e4ebe4" stroke-width="4" stroke-linecap="round" stroke-linejoin="round" stroke-dasharray='5 6'/><path d="M336.7,447.2 L336.0,448.7 L335.2,462.3 L335.0,483.8 L333.4,569.2" fill="none" stroke="#e4ebe4" stroke-width="4" stroke-linecap="round" stroke-linejoin="round" stroke-dasharray='5 6'/><path d="M563.5,332.2 L585.8,332.3" fill="none" stroke="#e4ebe4" stroke-width="4" stroke-linecap="round" stroke-linejoin="round" stroke-dasharray='5 6'/><path d="M563.4,353.6 L585.6,353.7" fill="none" stroke="#e4ebe4" stroke-width="4" stroke-linecap="round" stroke-linejoin="round" stroke-dasharray='5 6'/><path d="M563.7,316.4 L563.5,332.2 L563.4,353.6 L563.6,370.7 L566.1,375.2 L568.9,377.1 L573.5,377.2 L580.4,377.3 L584.0,373.7 L586.0,369.8 L585.6,353.7 L585.8,332.3 L586.4,317.3" fill="none" stroke="#e4ebe4" stroke-width="4" stroke-linecap="round" stroke-linejoin="round" stroke-dasharray='5 6'/><path d="M550.7,688.1 L550.2,678.8 L550.0,672.7" fill="none" stroke="#e4ebe4" stroke-width="4" stroke-linecap="round" stroke-linejoin="round" stroke-dasharray='5 6'/><path d="M550.1,763.4 L551.3,698.4" fill="none" stroke="#e4ebe4" stroke-width="4" stroke-linecap="round" stroke-linejoin="round" stroke-dasharray='5 6'/><path d="M962.0,169.0 L928.0,168.6" fill="none" stroke="#f7f9f6" stroke-width="30" stroke-linecap="round" stroke-linejoin="round"/><path d="M617.1,424.6 L595.7,424.3 L548.6,424.1 L532.0,424.0 L518.5,423.5 L511.1,416.6 L442.2,416.6 L343.9,416.8 L338.7,416.6 L337.0,415.6 L335.3,416.7" fill="none" stroke="#e4ebe4" stroke-width="4" stroke-linecap="round" stroke-linejoin="round" stroke-dasharray='5 6'/><path d="M595.7,424.3 L596.3,393.4 L594.9,393.3" fill="none" stroke="#e4ebe4" stroke-width="4" stroke-linecap="round" stroke-linejoin="round" stroke-dasharray='5 6'/><path d="M573.5,377.2 L573.5,383.0" fill="none" stroke="#e4ebe4" stroke-width="4" stroke-linecap="round" stroke-linejoin="round" stroke-dasharray='5 6'/><path d="M551.8,392.6 L550.5,392.7 L548.9,404.8 L548.6,424.1" fill="none" stroke="#e4ebe4" stroke-width="4" stroke-linecap="round" stroke-linejoin="round" stroke-dasharray='5 6'/><path d="M590.1,393.2 L586.3,392.9 L584.8,389.2 L582.5,386.6 L578.7,384.1 L573.5,383.0 L568.6,383.9 L564.7,386.4 L562.2,389.4 L560.7,392.4 L556.6,392.6" fill="none" stroke="#e4ebe4" stroke-width="4" stroke-linecap="round" stroke-linejoin="round" stroke-dasharray='5 6'/><path d="M771.9,450.8 L775.3,451.3 L785.3,452.4 L800.1,454.0" fill="none" stroke="#e4ebe4" stroke-width="4" stroke-linecap="round" stroke-linejoin="round" stroke-dasharray='5 6'/><path d="M800.2,415.9 L800.1,435.1 L800.1,454.0" fill="none" stroke="#e4ebe4" stroke-width="4" stroke-linecap="round" stroke-linejoin="round" stroke-dasharray='5 6'/><path d="M841.5,674.7 L836.5,686.6 L833.2,698.2 L852.4,702.7 L865.4,705.6 L885.7,707.7 L908.3,709.2 L909.4,697.5 L910.6,684.4 L912.0,669.9" fill="none" stroke="#e4ebe4" stroke-width="4" stroke-linecap="round" stroke-linejoin="round" stroke-dasharray='5 6'/><path d="M1022.7,490.8 L1032.6,494.7 L1061.0,500.9 L1091.8,501.3 L1098.0,499.7 L1130.0,489.2 L1133.0,487.8 L1186.9,462.1 L1197.7,456.9" fill="none" stroke="#f7f9f6" stroke-width="14" stroke-linecap="round" stroke-linejoin="round"/><path d="M908.6,148.7 L907.3,167.0 L904.4,191.1 L902.9,212.3 L897.1,215.5" fill="none" stroke="#e4ebe4" stroke-width="4" stroke-linecap="round" stroke-linejoin="round" stroke-dasharray='5 6'/><path d="M876.8,339.7 L879.5,358.8 L881.6,369.4 L883.9,385.3 L882.9,397.0 L879.5,408.6 L878.9,415.3 L879.0,418.1" fill="none" stroke="#e4ebe4" stroke-width="4" stroke-linecap="round" stroke-linejoin="round" stroke-dasharray='5 6'/><path d="M876.8,339.7 L876.9,332.7 L878.3,329.2 L877.4,322.3" fill="none" stroke="#e4ebe4" stroke-width="4" stroke-linecap="round" stroke-linejoin="round" stroke-dasharray='5 6'/><path d="M843.5,644.7 L849.5,634.9 L840.4,626.1 L831.6,614.9 L827.6,606.5 L825.7,596.6 L829.3,583.1 L831.9,578.8 L844.6,566.4 L853.4,553.9 L854.9,541.0 L856.1,537.5 L856.0,528.2 L854.5,517.8 L854.9,510.1 L857.8,502.8" fill="none" stroke="#e4ebe4" stroke-width="4" stroke-linecap="round" stroke-linejoin="round" stroke-dasharray='5 6'/><path d="M831.9,578.8 L831.2,569.3 L829.8,561.5 L827.4,557.1 L826.3,554.3 L814.0,546.9 L806.0,544.5 L795.7,543.3" fill="none" stroke="#e4ebe4" stroke-width="4" stroke-linecap="round" stroke-linejoin="round" stroke-dasharray='5 6'/><path d="M826.3,554.3 L833.2,553.2 L841.5,549.9 L848.1,545.9 L854.9,541.0" fill="none" stroke="#e4ebe4" stroke-width="4" stroke-linecap="round" stroke-linejoin="round" stroke-dasharray='5 6'/><path d="M979.7,156.3 L987.7,146.3 L990.6,138.9 L992.2,130.7 L994.7,108.5 L989.7,82.8 L988.1,61.7 L993.0,49.4 L1003.5,30.9 L1008.5,21.7 L1009.8,15.6 L1009.5,7.4 L1004.7,-1.0 L998.5,-9.6 L994.9,-15.6 L993.1,-23.5 L992.8,-29.7 L994.0,-55.4 L995.2,-67.4 L997.3,-75.2 L998.9,-81.4 L999.4,-90.7 L998.5,-98.0 L998.9,-106.6" fill="none" stroke="#e4ebe4" stroke-width="4" stroke-linecap="round" stroke-linejoin="round" stroke-dasharray='5 6'/><path d="M908.6,148.7 L929.0,150.6 L962.7,153.1 L979.7,156.3" fill="none" stroke="#e4ebe4" stroke-width="4" stroke-linecap="round" stroke-linejoin="round" stroke-dasharray='5 6'/><path d="M649.0,-59.4 L814.6,-51.2 L888.0,-47.4" fill="none" stroke="#e4ebe4" stroke-width="4" stroke-linecap="round" stroke-linejoin="round" stroke-dasharray='5 6'/><path d="M646.1,-50.0 L645.3,-39.2 L642.6,35.2 L636.0,81.6 L635.1,93.2" fill="none" stroke="#e4ebe4" stroke-width="4" stroke-linecap="round" stroke-linejoin="round" stroke-dasharray='5 6'/><path d="M806.7,-32.8 L801.6,74.5" fill="none" stroke="#e4ebe4" stroke-width="4" stroke-linecap="round" stroke-linejoin="round" stroke-dasharray='5 6'/><path d="M833.2,698.2 L831.4,699.6 L833.9,703.3 L834.8,706.0 L835.9,709.6 L835.6,713.8 L832.9,723.9" fill="none" stroke="#e4ebe4" stroke-width="4" stroke-linecap="round" stroke-linejoin="round" stroke-dasharray='5 6'/><path d="M1031.3,758.4 L1039.0,718.0" fill="none" stroke="#e4ebe4" stroke-width="4" stroke-linecap="round" stroke-linejoin="round" stroke-dasharray='5 6'/><path d="M597.8,232.1 L598.0,227.1 L598.2,159.9 L599.9,156.1 L601.3,153.8 L603.7,152.0" fill="none" stroke="#e4ebe4" stroke-width="4" stroke-linecap="round" stroke-linejoin="round" stroke-dasharray='5 6'/><path d="M595.6,279.3 L594.7,293.4 L594.1,303.3" fill="none" stroke="#e4ebe4" stroke-width="4" stroke-linecap="round" stroke-linejoin="round" stroke-dasharray='5 6'/><path d="M908.6,148.7 L905.5,147.3 L896.4,123.5 L896.4,92.9 L906.4,-46.9 L910.0,-89.6 L936.2,-110.3" fill="none" stroke="#e4ebe4" stroke-width="4" stroke-linecap="round" stroke-linejoin="round" stroke-dasharray='5 6'/><path d="M876.7,457.3 L897.2,456.2 L909.8,456.0" fill="none" stroke="#e4ebe4" stroke-width="4" stroke-linecap="round" stroke-linejoin="round" stroke-dasharray='5 6'/><path d="M553.4,278.7 L554.1,294.1 L554.5,303.2" fill="none" stroke="#e4ebe4" stroke-width="4" stroke-linecap="round" stroke-linejoin="round" stroke-dasharray='5 6'/><path d="M987.7,146.3 L995.0,147.8 L1003.2,150.0 L1012.6,152.5 L1020.5,153.9 L1035.7,155.0 L1053.8,155.5 L1105.8,155.7 L1115.7,155.6 L1121.5,152.3 L1128.4,144.8 L1132.4,145.5 L1141.3,146.1" fill="none" stroke="#e4ebe4" stroke-width="4" stroke-linecap="round" stroke-linejoin="round" stroke-dasharray='5 6'/><path d="M948.0,457.3 L948.0,467.5 L948.0,481.8 L948.1,493.6 L949.4,495.7" fill="none" stroke="#e4ebe4" stroke-width="4" stroke-linecap="round" stroke-linejoin="round" stroke-dasharray='5 6'/><path d="M770.8,451.8 L771.9,454.3 L772.1,488.1" fill="none" stroke="#e4ebe4" stroke-width="4" stroke-linecap="round" stroke-linejoin="round" stroke-dasharray='5 6'/><path d="M567.7,129.2 L567.7,145.4 L567.7,151.1 L566.9,227.0 L565.7,266.4 L566.7,278.9 L574.9,293.8" fill="none" stroke="#f7f9f6" stroke-width="12" stroke-linecap="round" stroke-linejoin="round"/><path d="M769.9,420.1 L771.6,421.8" fill="none" stroke="#e4ebe4" stroke-width="4" stroke-linecap="round" stroke-linejoin="round" stroke-dasharray='5 6'/><path d="M897.1,215.5 L899.7,220.2 L899.6,229.7 L897.6,261.9 L893.9,284.0 L887.7,299.5 L880.7,311.8 L877.4,322.3" fill="none" stroke="#e4ebe4" stroke-width="4" stroke-linecap="round" stroke-linejoin="round" stroke-dasharray='5 6'/><path d="M595.6,279.3 L583.9,279.1 L566.7,278.9 L553.4,278.7" fill="none" stroke="#e4ebe4" stroke-width="4" stroke-linecap="round" stroke-linejoin="round" stroke-dasharray='5 6'/><path d="M857.8,502.8 L863.6,496.1 L869.0,487.3 L870.1,479.9 L871.8,459.6" fill="none" stroke="#e4ebe4" stroke-width="4" stroke-linecap="round" stroke-linejoin="round" stroke-dasharray='5 6'/><path d="M343.8,132.8 L349.3,138.5 L353.0,136.7 L358.6,135.5 L468.0,140.8 L525.2,144.8 L536.6,145.8 L542.9,146.6 L547.3,148.0 L553.1,144.8" fill="none" stroke="#e4ebe4" stroke-width="4" stroke-linecap="round" stroke-linejoin="round" stroke-dasharray='5 6'/><path d="M909.8,456.0 L922.7,456.0" fill="none" stroke="#e4ebe4" stroke-width="4" stroke-linecap="round" stroke-linejoin="round" stroke-dasharray='5 6'/><path d="M553.4,278.7 L550.8,274.7 L537.7,276.7 L526.1,282.5 L481.3,296.7 L469.5,298.6 L458.9,299.1 L403.1,298.7 L344.6,297.7" fill="none" stroke="#e4ebe4" stroke-width="4" stroke-linecap="round" stroke-linejoin="round" stroke-dasharray='5 6'/><path d="M688.4,305.0 L690.7,298.4 L664.2,296.5 L602.8,277.3 L599.1,275.4 L595.6,279.3" fill="none" stroke="#e4ebe4" stroke-width="4" stroke-linecap="round" stroke-linejoin="round" stroke-dasharray='5 6'/><path d="M773.8,300.3 L787.1,300.6 L797.0,300.7" fill="none" stroke="#e4ebe4" stroke-width="4" stroke-linecap="round" stroke-linejoin="round" stroke-dasharray='5 6'/><path d="M773.8,300.3 L764.8,300.2 L719.2,299.5" fill="none" stroke="#e4ebe4" stroke-width="4" stroke-linecap="round" stroke-linejoin="round" stroke-dasharray='5 6'/><path d="M719.2,299.5 L704.8,298.9 L690.7,298.4" fill="none" stroke="#e4ebe4" stroke-width="4" stroke-linecap="round" stroke-linejoin="round" stroke-dasharray='5 6'/><path d="M801.2,457.2 L798.2,460.5 L795.9,466.9 L795.7,543.3 L794.7,642.0 L797.5,647.3" fill="none" stroke="#e4ebe4" stroke-width="4" stroke-linecap="round" stroke-linejoin="round" stroke-dasharray='5 6'/><path d="M769.9,420.1 L760.5,420.2 L693.3,419.5 L636.1,419.0 L631.3,422.4 L617.1,424.6" fill="none" stroke="#e4ebe4" stroke-width="4" stroke-linecap="round" stroke-linejoin="round" stroke-dasharray='5 6'/><path d="M594.1,303.3 L593.0,317.7" fill="none" stroke="#e4ebe4" stroke-width="4" stroke-linecap="round" stroke-linejoin="round" stroke-dasharray='5 6'/><path d="M871.8,459.6 L870.1,456.0 L863.6,453.6 L808.1,453.7 L803.9,455.5 L801.2,457.2" fill="none" stroke="#e4ebe4" stroke-width="4" stroke-linecap="round" stroke-linejoin="round" stroke-dasharray='5 6'/><path d="M800.2,415.9 L801.4,415.0 L799.8,413.1 L798.9,409.5 L798.5,403.4 L800.0,371.4 L801.7,334.0" fill="none" stroke="#e4ebe4" stroke-width="4" stroke-linecap="round" stroke-linejoin="round" stroke-dasharray='5 6'/><path d="M554.5,303.2 L556.7,316.8" fill="none" stroke="#e4ebe4" stroke-width="4" stroke-linecap="round" stroke-linejoin="round" stroke-dasharray='5 6'/><path d="M922.7,456.0 L933.4,456.6 L948.0,457.3" fill="none" stroke="#e4ebe4" stroke-width="4" stroke-linecap="round" stroke-linejoin="round" stroke-dasharray='5 6'/><path d="M879.0,418.1 L878.8,420.5 L878.1,436.0 L876.7,457.3" fill="none" stroke="#e4ebe4" stroke-width="4" stroke-linecap="round" stroke-linejoin="round" stroke-dasharray='5 6'/><path d="M771.6,421.8 L771.8,434.2 L771.9,450.8" fill="none" stroke="#e4ebe4" stroke-width="4" stroke-linecap="round" stroke-linejoin="round" stroke-dasharray='5 6'/><path d="M801.4,415.0 L806.4,418.8 L811.4,420.1 L873.4,420.7 L879.0,418.1" fill="none" stroke="#e4ebe4" stroke-width="4" stroke-linecap="round" stroke-linejoin="round" stroke-dasharray='5 6'/><path d="M110.0,729.6 L107.0,728.1 L104.0,727.1 L90.9,727.1 L68.7,727.6" fill="none" stroke="#e4ebe4" stroke-width="4" stroke-linecap="round" stroke-linejoin="round" stroke-dasharray='5 6'/><path d="M128.3,728.2 L131.6,727.9 L139.6,723.8 L217.2,724.1" fill="none" stroke="#e4ebe4" stroke-width="4" stroke-linecap="round" stroke-linejoin="round" stroke-dasharray='5 6'/><path d="M112.1,728.5 L120.7,728.1 L128.3,728.2" fill="none" stroke="#e4ebe4" stroke-width="4" stroke-linecap="round" stroke-linejoin="round" stroke-dasharray='5 6'/><path d="M305.0,718.0 L306.2,725.2" fill="none" stroke="#e4ebe4" stroke-width="4" stroke-linecap="round" stroke-linejoin="round" stroke-dasharray='5 6'/><path d="M131.6,727.9 L129.6,729.9 L128.9,733.8 L130.5,737.4 L132.6,739.6 L135.3,741.0 L138.5,741.6 L141.4,741.4 L141.1,742.5" fill="none" stroke="#e4ebe4" stroke-width="4" stroke-linecap="round" stroke-linejoin="round" stroke-dasharray='5 6'/><path d="M53.0,750.5 L-91.9,761.4 L-115.2,763.1" fill="none" stroke="#e4ebe4" stroke-width="4" stroke-linecap="round" stroke-linejoin="round" stroke-dasharray='5 6'/><path d="M314.3,724.3 L323.5,723.6 L332.8,723.0" fill="none" stroke="#e4ebe4" stroke-width="4" stroke-linecap="round" stroke-linejoin="round" stroke-dasharray='5 6'/><path d="M48.1,728.5 L-127.8,726.2" fill="none" stroke="#e4ebe4" stroke-width="4" stroke-linecap="round" stroke-linejoin="round" stroke-dasharray='5 6'/><path d="M304.9,686.5 L305.7,708.0 L305.0,718.0" fill="none" stroke="#e4ebe4" stroke-width="4" stroke-linecap="round" stroke-linejoin="round" stroke-dasharray='5 6'/><path d="M266.8,724.2 L306.2,725.2" fill="none" stroke="#e4ebe4" stroke-width="4" stroke-linecap="round" stroke-linejoin="round" stroke-dasharray='5 6'/><path d="M141.1,742.5 L139.2,749.2 L136.8,761.9" fill="none" stroke="#e4ebe4" stroke-width="4" stroke-linecap="round" stroke-linejoin="round" stroke-dasharray='5 6'/><path d="M65.9,749.6 L59.1,750.1 L53.0,750.5" fill="none" stroke="#e4ebe4" stroke-width="4" stroke-linecap="round" stroke-linejoin="round" stroke-dasharray='5 6'/><path d="M217.2,724.1 L236.7,724.2 L266.8,724.2" fill="none" stroke="#e4ebe4" stroke-width="4" stroke-linecap="round" stroke-linejoin="round" stroke-dasharray='5 6'/><path d="M68.7,727.6 L59.0,728.6 L48.1,728.5" fill="none" stroke="#e4ebe4" stroke-width="4" stroke-linecap="round" stroke-linejoin="round" stroke-dasharray='5 6'/><path d="M90.9,727.1 L90.6,734.2 L89.8,737.0 L88.0,739.6 L81.8,742.3 L75.9,745.6 L71.9,749.2 L65.9,749.6" fill="none" stroke="#e4ebe4" stroke-width="4" stroke-linecap="round" stroke-linejoin="round" stroke-dasharray='5 6'/><path d="M332.8,723.0 L364.9,720.4 L377.4,718.5 L468.0,705.7 L480.2,703.9 L508.8,699.9 L537.4,695.6 L542.7,694.7 L551.0,693.8" fill="none" stroke="#e4ebe4" stroke-width="4" stroke-linecap="round" stroke-linejoin="round" stroke-dasharray='5 6'/><path d="M877.4,322.3 L872.5,325.8 L867.8,328.8 L862.7,330.7" fill="none" stroke="#e4ebe4" stroke-width="4" stroke-linecap="round" stroke-linejoin="round" stroke-dasharray='5 6'/><path d="M862.7,330.7 L825.0,332.6 L823.3,328.6 L817.9,326.6 L813.1,327.3 L811.2,331.3 L810.6,333.6 L801.7,334.0" fill="none" stroke="#e4ebe4" stroke-width="4" stroke-linecap="round" stroke-linejoin="round" stroke-dasharray='5 6'/><path d="M1342.9,966.0 L1329.2,957.4 L1311.7,944.2 L1303.2,934.8 L1298.1,929.8 L1290.9,922.9 L1276.5,913.0 L1257.6,902.7 L1238.5,890.9 L1195.7,864.4 L1163.3,848.6 L1123.0,828.9 L1104.8,821.0 L1095.1,816.9 L1081.5,811.1 L1055.0,800.4 L1030.0,792.2 L989.7,784.3 L902.8,766.8 L799.8,745.6 L759.2,738.7 L720.1,733.4 L681.9,730.8 L645.4,730.5 L586.0,731.0 L542.4,734.5 L485.6,740.9 L438.7,748.0 L391.3,756.9 L339.5,769.7 L224.3,800.7 L162.2,817.7 L77.2,838.8 L30.1,847.8 L-19.5,855.4 L-22.4,855.7 L-42.8,858.0 L-52.4,857.9 L-58.7,857.8 L-83.0,858.7 L-100.1,860.0 L-138.2,863.4 L-177.2,864.6 L-244.3,863.1" fill="none" stroke="#e4ebe4" stroke-width="4" stroke-linecap="round" stroke-linejoin="round" stroke-dasharray='5 6'/><path d="M867.9,783.1 L879.9,731.6" fill="none" stroke="#f7f9f6" stroke-width="37" stroke-linecap="round" stroke-linejoin="round"/><path d="M847.0,724.7 L834.8,776.5" fill="none" stroke="#f7f9f6" stroke-width="37" stroke-linecap="round" stroke-linejoin="round"/><path d="M1039.0,718.0 L1059.3,651.9 L1061.8,641.9 L1068.5,615.4 L1075.2,589.0 L1076.4,584.8 L1098.0,499.7" fill="none" stroke="#f7f9f6" stroke-width="14" stroke-linecap="round" stroke-linejoin="round"/><path d="M832.9,723.9 L821.1,773.7" fill="none" stroke="#e4ebe4" stroke-width="4" stroke-linecap="round" stroke-linejoin="round" stroke-dasharray='5 6'/><path d="M888.1,695.4 L909.4,697.5 L929.4,699.4 L940.4,702.0 L951.1,704.8 L957.6,708.4 L962.4,714.1 L1016.1,731.5 L1026.0,731.5 L1033.1,726.8 L1039.0,718.0" fill="none" stroke="#f7f9f6" stroke-width="14" stroke-linecap="round" stroke-linejoin="round"/><path d="M892.5,679.7 L902.0,637.3 L909.8,602.2 L924.0,524.4 L931.1,473.2 L932.3,464.5 L933.4,456.6 L943.3,388.1" fill="none" stroke="#f7f9f6" stroke-width="37" stroke-linecap="round" stroke-linejoin="round"/><path d="M782.5,658.7 L782.8,644.5 L783.0,620.8 L784.2,533.9 L784.4,494.9 L785.3,452.4 L785.5,434.8 L785.7,418.9 L786.4,371.1 L786.8,339.7" fill="none" stroke="#f7f9f6" stroke-width="17" stroke-linecap="round" stroke-linejoin="round"/><path d="M572.8,675.8 L570.5,658.6 L570.3,643.2 L570.3,635.9 L570.4,581.9 L570.6,555.5" fill="none" stroke="#f7f9f6" stroke-width="14" stroke-linecap="round" stroke-linejoin="round"/><path d="M896.5,736.3 L901.0,721.2 L903.9,715.0 L908.3,709.2" fill="none" stroke="#e4ebe4" stroke-width="4" stroke-linecap="round" stroke-linejoin="round" stroke-dasharray='5 6'/><path d="M1039.0,718.0 L961.7,696.9 L930.2,689.4 L910.6,684.4 L892.5,679.7" fill="none" stroke="#f7f9f6" stroke-width="14" stroke-linecap="round" stroke-linejoin="round"/><path d="M885.6,785.4 L896.5,736.3" fill="none" stroke="#e4ebe4" stroke-width="4" stroke-linecap="round" stroke-linejoin="round" stroke-dasharray='5 6'/><path d="M57.7,665.2 L49.7,678.4 L49.9,691.1 L50.0,699.1 L59.2,709.0" fill="none" stroke="#f7f9f6" stroke-width="17" stroke-linecap="round" stroke-linejoin="round"/><path d="M59.2,709.0 L68.5,699.1 L68.4,691.2 L68.4,678.3 L57.7,665.2" fill="none" stroke="#f7f9f6" stroke-width="17" stroke-linecap="round" stroke-linejoin="round"/><path d="M758.8,674.8 L812.0,682.5 L836.5,686.6 L855.4,690.3" fill="none" stroke="#f7f9f6" stroke-width="19" stroke-linecap="round" stroke-linejoin="round"/><path d="M64.9,120.2 L89.2,118.7 L126.7,116.5 L209.8,115.4 L304.0,115.7 L325.5,116.2 L352.3,116.8 L421.0,119.1" fill="none" stroke="#f7f9f6" stroke-width="30" stroke-linecap="round" stroke-linejoin="round"/><path d="M859.4,672.9 L842.0,669.3 L806.9,662.0 L782.5,658.7 L766.7,656.5 L733.4,653.5 L701.5,651.8 L663.0,651.1 L626.7,652.5 L587.6,656.5 L570.5,658.6 L549.7,661.1 L506.8,669.3 L442.5,682.8 L381.0,699.7" fill="none" stroke="#f7f9f6" stroke-width="19" stroke-linecap="round" stroke-linejoin="round"/><path d="M-221.2,422.9 L-145.7,425.4 L-131.3,425.7 L-116.9,425.9 L-37.2,426.9 L45.2,427.7 L61.4,427.3 L76.8,426.6 L193.1,427.4 L307.6,428.5 L324.2,428.5" fill="none" stroke="#f7f9f6" stroke-width="17" stroke-linecap="round" stroke-linejoin="round"/><path d="M955.9,-194.7 L953.7,-154.1 L946.8,-63.0 L942.9,-29.6" fill="none" stroke="#f7f9f6" stroke-width="37" stroke-linecap="round" stroke-linejoin="round"/><path d="M964.7,46.5 L966.3,-33.8 L969.5,-91.8 L976.5,-193.5" fill="none" stroke="#f7f9f6" stroke-width="37" stroke-linecap="round" stroke-linejoin="round"/><path d="M942.9,-29.6 L937.6,30.3 L936.6,51.7 L931.6,117.9" fill="none" stroke="#f7f9f6" stroke-width="37" stroke-linecap="round" stroke-linejoin="round"/><path d="M568.3,107.5 L555.3,106.6 L545.5,105.5 L480.0,99.9 L321.4,92.9 L204.8,92.6" fill="none" stroke="#f7f9f6" stroke-width="30" stroke-linecap="round" stroke-linejoin="round"/><path d="M738.8,138.4 L699.6,129.1 L607.4,112.5 L598.3,111.1 L587.2,109.5" fill="none" stroke="#f7f9f6" stroke-width="30" stroke-linecap="round" stroke-linejoin="round"/><path d="M743.8,164.3 L785.2,174.1 L837.2,185.2 L879.7,189.5 L904.4,191.1 L926.3,190.9" fill="none" stroke="#f7f9f6" stroke-width="30" stroke-linecap="round" stroke-linejoin="round"/><path d="M906.4,-46.9 L894.9,-47.2 L888.0,-47.4" fill="none" stroke="#e4ebe4" stroke-width="4" stroke-linecap="round" stroke-linejoin="round" stroke-dasharray='5 6'/><path d="M814.6,-51.2 L810.2,-40.9 L806.7,-32.8" fill="none" stroke="#e4ebe4" stroke-width="4" stroke-linecap="round" stroke-linejoin="round" stroke-dasharray='5 6'/><path d="M801.6,74.5 L806.1,82.7 L809.5,88.8" fill="none" stroke="#e4ebe4" stroke-width="4" stroke-linecap="round" stroke-linejoin="round" stroke-dasharray='5 6'/><path d="M1126.2,204.8 L1120.7,205.3 L1116.4,206.1 L1109.6,205.8 L1102.2,205.0 L1097.7,203.4 L1003.4,202.9 L993.5,204.3 L984.9,206.4 L979.7,201.5" fill="none" stroke="#e4ebe4" stroke-width="4" stroke-linecap="round" stroke-linejoin="round" stroke-dasharray='5 6'/><path d="M979.7,201.5 L980.5,187.7 L980.0,170.4 L979.7,156.3" fill="none" stroke="#e4ebe4" stroke-width="4" stroke-linecap="round" stroke-linejoin="round" stroke-dasharray='5 6'/><path d="M857.8,502.8 L854.2,493.7 L848.6,487.0 L842.6,483.8 L824.8,475.8 L813.8,467.3" fill="none" stroke="#e4ebe4" stroke-width="4" stroke-linecap="round" stroke-linejoin="round" stroke-dasharray='5 6'/><path d="M306.2,725.2 L314.3,724.3" fill="none" stroke="#e4ebe4" stroke-width="4" stroke-linecap="round" stroke-linejoin="round" stroke-dasharray='5 6'/><path d="M821.1,773.7 L817.1,781.5 L811.6,787.3 L804.1,793.5 L796.2,800.8 L793.4,806.3 L792.0,812.2 L788.1,831.6 L770.2,897.6 L759.8,929.1 L753.1,956.4 L748.5,983.9 L748.4,997.8 L750.0,1006.8 L752.8,1012.3 L756.0,1014.7" fill="none" stroke="#e4ebe4" stroke-width="4" stroke-linecap="round" stroke-linejoin="round" stroke-dasharray='5 6'/><path d="M587.9,636.9 L595.0,645.3 L601.3,646.4 L613.2,645.6 L632.2,644.2 L664.9,643.1 L696.9,643.1 L724.5,644.5 L746.2,646.3 L757.2,646.3 L761.8,645.6 L765.8,642.8 L771.0,641.8" fill="none" stroke="#e4ebe4" stroke-width="4" stroke-linecap="round" stroke-linejoin="round" stroke-dasharray='5 6'/><path d="M549.5,650.9 L550.5,647.4 L552.2,645.5 L554.3,642.4 L554.8,638.4 L554.9,603.6 L552.9,599.2 L545.4,592.6" fill="none" stroke="#e4ebe4" stroke-width="4" stroke-linecap="round" stroke-linejoin="round" stroke-dasharray='5 6'/><path d="M304.9,686.5 L323.1,684.7 L338.0,683.6 L345.5,683.5 L351.1,684.2 L373.1,681.8 L535.5,648.4 L550.5,647.4" fill="none" stroke="#e4ebe4" stroke-width="4" stroke-linecap="round" stroke-linejoin="round" stroke-dasharray='5 6'/><path d="M-133.1,520.5 L-118.4,520.7 L-109.0,520.7 L-38.4,521.4 L32.4,522.2 L42.5,522.3 L61.2,522.4" fill="none" stroke="#f7f9f6" stroke-width="14" stroke-linecap="round" stroke-linejoin="round"/><path d="M120.5,710.0 L185.2,710.4 L218.4,710.6 L252.9,710.1" fill="none" stroke="#f7f9f6" stroke-width="19" stroke-linecap="round" stroke-linejoin="round"/><path d="M648.2,104.5 L648.5,82.7 L636.0,81.6" fill="none" stroke="#e4ebe4" stroke-width="4" stroke-linecap="round" stroke-linejoin="round" stroke-dasharray='5 6'/><path d="M744.2,124.8 L736.0,118.8 L732.5,112.6 L730.9,106.0 L732.1,99.8 L735.3,94.7 L740.4,91.1 L745.5,87.8 L754.3,89.5 L783.1,89.9 L789.4,87.7 L809.5,88.8 L816.7,89.3 L824.9,89.9 L896.4,92.9" fill="none" stroke="#e4ebe4" stroke-width="4" stroke-linecap="round" stroke-linejoin="round" stroke-dasharray='5 6'/><path d="M719.9,119.6 L648.2,104.5 L598.0,98.5 L594.3,88.6 L597.9,-40.0" fill="none" stroke="#e4ebe4" stroke-width="4" stroke-linecap="round" stroke-linejoin="round" stroke-dasharray='5 6'/><path d="M649.0,-59.4 L646.1,-50.0" fill="none" stroke="#e4ebe4" stroke-width="4" stroke-linecap="round" stroke-linejoin="round" stroke-dasharray='5 6'/><path d="M597.9,-40.0 L645.3,-39.2" fill="none" stroke="#e4ebe4" stroke-width="4" stroke-linecap="round" stroke-linejoin="round" stroke-dasharray='5 6'/><path d="M1027.1,575.4 L1022.0,601.0 L1011.4,632.2 L975.9,623.2 L972.3,619.9 L969.6,615.6 L968.8,611.2 L970.3,603.5" fill="none" stroke="#e4ebe4" stroke-width="4" stroke-linecap="round" stroke-linejoin="round" stroke-dasharray='5 6'/><path d="M949.4,495.7 L957.7,494.3 L970.6,497.2 L979.2,501.4 L1052.0,512.8 L1059.1,513.4 L1077.2,510.7 L1082.1,511.6 L1067.3,578.5 L1044.5,576.1 L1027.1,575.4 L993.6,567.8 L989.3,568.5 L985.3,569.2 L983.0,571.4 L980.2,575.4 L978.7,581.8" fill="none" stroke="#e4ebe4" stroke-width="4" stroke-linecap="round" stroke-linejoin="round" stroke-dasharray='5 6'/><path d="M987.1,468.1 L988.7,462.0 L997.2,448.1 L998.2,438.8 L994.5,427.7 L981.9,400.5 L977.3,383.3 L974.0,347.8 L974.1,328.2 L975.1,304.5 L979.3,250.0 L983.0,212.7 L984.9,206.4" fill="none" stroke="#e4ebe4" stroke-width="4" stroke-linecap="round" stroke-linejoin="round" stroke-dasharray='5 6'/><path d="M44.0,412.9 L41.5,414.2 L5.4,413.7 L-37.2,413.9 L-112.9,413.0 L-115.5,411.8 L-116.3,412.2" fill="none" stroke="#e4ebe4" stroke-width="4" stroke-linecap="round" stroke-linejoin="round" stroke-dasharray='5 6'/><path d="M43.1,534.2 L42.5,522.3 L41.9,511.3" fill="none" stroke="#e4ebe4" stroke-width="4" stroke-linecap="round" stroke-linejoin="round" stroke-dasharray='5 6'/><path d="M304.9,686.5 L298.9,690.6 L77.5,691.1 L77.7,665.5 L78.3,589.7 L306.9,591.6" fill="none" stroke="#e4ebe4" stroke-width="4" stroke-linecap="round" stroke-linejoin="round" stroke-dasharray='5 6'/><path d="M306.9,591.6 L305.9,640.6 L304.9,686.5" fill="none" stroke="#e4ebe4" stroke-width="4" stroke-linecap="round" stroke-linejoin="round" stroke-dasharray='5 6'/><path d="M37.5,685.1 L39.9,642.1 L45.2,545.8 L43.3,538.1 L43.1,534.2" fill="none" stroke="#e4ebe4" stroke-width="4" stroke-linecap="round" stroke-linejoin="round" stroke-dasharray='5 6'/><path d="M37.5,685.1 L30.4,689.3 L-0.6,689.3 L-118.9,687.3 L-122.6,686.3" fill="none" stroke="#e4ebe4" stroke-width="4" stroke-linecap="round" stroke-linejoin="round" stroke-dasharray='5 6'/><path d="M45.1,441.7 L39.4,446.5 L34.4,444.1 L-37.2,441.5 L-90.4,441.3 L-110.1,441.3 L-114.6,443.1 L-117.6,441.0" fill="none" stroke="#e4ebe4" stroke-width="4" stroke-linecap="round" stroke-linejoin="round" stroke-dasharray='5 6'/><path d="M79.9,586.4 L77.4,576.7 L74.4,564.9" fill="none" stroke="#e4ebe4" stroke-width="4" stroke-linecap="round" stroke-linejoin="round" stroke-dasharray='5 6'/><path d="M76.1,562.7 L220.5,565.4 L237.6,565.5 L307.1,565.7" fill="none" stroke="#e4ebe4" stroke-width="4" stroke-linecap="round" stroke-linejoin="round" stroke-dasharray='5 6'/><path d="M76.1,562.7 L72.9,556.6 L73.1,512.3 L76.2,443.5 L77.2,442.2" fill="none" stroke="#e4ebe4" stroke-width="4" stroke-linecap="round" stroke-linejoin="round" stroke-dasharray='5 6'/><path d="M90.3,137.4 L88.6,200.5" fill="none" stroke="#e4ebe4" stroke-width="4" stroke-linecap="round" stroke-linejoin="round" stroke-dasharray='5 6'/><path d="M-115.5,411.8 L-116.5,409.3 L-114.2,320.5 L21.5,320.3 L44.5,319.1 L50.8,318.9" fill="none" stroke="#e4ebe4" stroke-width="4" stroke-linecap="round" stroke-linejoin="round" stroke-dasharray='5 6'/><path d="M46.6,296.7 L43.9,296.6 L-55.4,297.0 L-83.0,297.1 L-118.7,293.6" fill="none" stroke="#e4ebe4" stroke-width="4" stroke-linecap="round" stroke-linejoin="round" stroke-dasharray='5 6'/><path d="M46.6,296.7 L62.6,296.8 L79.5,296.5 L83.4,294.0" fill="none" stroke="#e4ebe4" stroke-width="4" stroke-linecap="round" stroke-linejoin="round" stroke-dasharray='5 6'/><path d="M302.6,136.3 L308.7,145.8 L307.6,296.5" fill="none" stroke="#e4ebe4" stroke-width="4" stroke-linecap="round" stroke-linejoin="round" stroke-dasharray='5 6'/><path d="M307.6,296.5 L297.1,292.8 L185.0,293.4 L87.3,294.0 L84.6,292.9 L83.4,294.0" fill="none" stroke="#e4ebe4" stroke-width="4" stroke-linecap="round" stroke-linejoin="round" stroke-dasharray='5 6'/><path d="M80.4,321.2 L82.0,323.4 L85.9,320.8 L194.3,322.2 L307.3,324.1 L307.6,411.7 L305.6,414.7" fill="none" stroke="#e4ebe4" stroke-width="4" stroke-linecap="round" stroke-linejoin="round" stroke-dasharray='5 6'/><path d="M307.3,324.1 L324.3,324.0 L340.9,324.4" fill="none" stroke="#e4ebe4" stroke-width="4" stroke-linecap="round" stroke-linejoin="round" stroke-dasharray='5 6'/><path d="M307.3,324.1 L307.1,311.6 L307.6,296.5 L324.7,297.3 L344.6,297.7" fill="none" stroke="#e4ebe4" stroke-width="4" stroke-linecap="round" stroke-linejoin="round" stroke-dasharray='5 6'/><path d="M344.6,297.7 L348.2,220.1 L349.3,138.5" fill="none" stroke="#e4ebe4" stroke-width="4" stroke-linecap="round" stroke-linejoin="round" stroke-dasharray='5 6'/><path d="M340.9,324.4 L338.0,334.9 L336.6,413.9 L337.0,415.6" fill="none" stroke="#e4ebe4" stroke-width="4" stroke-linecap="round" stroke-linejoin="round" stroke-dasharray='5 6'/><path d="M344.6,297.7 L341.9,313.1 L340.9,324.4" fill="none" stroke="#e4ebe4" stroke-width="4" stroke-linecap="round" stroke-linejoin="round" stroke-dasharray='5 6'/><path d="M77.2,414.6 L60.9,414.3 L45.2,414.1" fill="none" stroke="#e4ebe4" stroke-width="4" stroke-linecap="round" stroke-linejoin="round" stroke-dasharray='5 6'/><path d="M77.2,442.2 L79.0,441.7 L192.8,444.1 L222.7,444.7 L238.8,445.1 L303.9,445.7 L305.5,446.1 L307.4,445.1" fill="none" stroke="#e4ebe4" stroke-width="4" stroke-linecap="round" stroke-linejoin="round" stroke-dasharray='5 6'/><path d="M928.0,168.6 L907.3,167.0 L857.8,164.1 L809.0,156.1 L738.8,138.4" fill="none" stroke="#f7f9f6" stroke-width="30" stroke-linecap="round" stroke-linejoin="round"/><path d="M928.0,168.6 L926.3,190.9" fill="none" stroke="#f7f9f6" stroke-width="37" stroke-linecap="round" stroke-linejoin="round"/><path d="M962.0,169.0 L962.7,153.1 L963.9,131.1 L964.7,46.5" fill="none" stroke="#f7f9f6" stroke-width="37" stroke-linecap="round" stroke-linejoin="round"/><path d="M926.3,190.9 L960.5,189.5" fill="none" stroke="#f7f9f6" stroke-width="30" stroke-linecap="round" stroke-linejoin="round"/><path d="M917.0,301.4 L911.6,343.0 L904.9,409.1 L901.2,435.9" fill="none" stroke="#f7f9f6" stroke-width="37" stroke-linecap="round" stroke-linejoin="round"/><path d="M80.4,321.2 L62.3,319.8 L50.8,318.9" fill="none" stroke="#e4ebe4" stroke-width="4" stroke-linecap="round" stroke-linejoin="round" stroke-dasharray='5 6'/><path d="M595.5,432.1 L595.3,449.8 L593.9,532.8 L593.5,555.7" fill="none" stroke="#e4ebe4" stroke-width="4" stroke-linecap="round" stroke-linejoin="round" stroke-dasharray='5 6'/><path d="M220.5,565.4 L222.7,444.7" fill="none" stroke="#e4ebe4" stroke-width="4" stroke-linecap="round" stroke-linejoin="round" stroke-dasharray='5 6'/><path d="M78.0,413.2 L77.3,411.1 L78.7,327.2 L82.0,323.4" fill="none" stroke="#e4ebe4" stroke-width="4" stroke-linecap="round" stroke-linejoin="round" stroke-dasharray='5 6'/><path d="M43.9,314.5 L44.5,319.1 L45.2,410.4 L44.0,412.9" fill="none" stroke="#e4ebe4" stroke-width="4" stroke-linecap="round" stroke-linejoin="round" stroke-dasharray='5 6'/><path d="M43.9,314.5 L43.9,308.6 L43.8,301.6" fill="none" stroke="#e4ebe4" stroke-width="4" stroke-linecap="round" stroke-linejoin="round" stroke-dasharray='5 6'/><path d="M42.6,137.7 L47.6,148.7 L45.3,212.5 L43.9,296.6 L43.8,301.6" fill="none" stroke="#e4ebe4" stroke-width="4" stroke-linecap="round" stroke-linejoin="round" stroke-dasharray='5 6'/><path d="M83.4,294.0 L81.3,297.7 L80.7,308.7 L80.4,321.2" fill="none" stroke="#e4ebe4" stroke-width="4" stroke-linecap="round" stroke-linejoin="round" stroke-dasharray='5 6'/><path d="M77.5,691.1 L68.4,691.2 L49.9,691.1 L30.4,689.3" fill="none" stroke="#e4ebe4" stroke-width="4" stroke-linecap="round" stroke-linejoin="round" stroke-dasharray='5 6'/><path d="M59.2,709.0 L120.5,710.0" fill="none" stroke="#f7f9f6" stroke-width="19" stroke-linecap="round" stroke-linejoin="round"/><path d="M273.6,709.8 L305.7,708.0 L323.1,706.8" fill="none" stroke="#f7f9f6" stroke-width="19" stroke-linecap="round" stroke-linejoin="round"/><path d="M855.4,690.3 L852.4,702.7 L847.0,724.7" fill="none" stroke="#f7f9f6" stroke-width="37" stroke-linecap="round" stroke-linejoin="round"/><path d="M855.4,690.3 L888.1,695.4" fill="none" stroke="#f7f9f6" stroke-width="19" stroke-linecap="round" stroke-linejoin="round"/><path d="M323.1,706.8 L381.0,699.7" fill="none" stroke="#f7f9f6" stroke-width="19" stroke-linecap="round" stroke-linejoin="round"/><path d="M879.9,731.6 L885.7,707.7 L888.1,695.4" fill="none" stroke="#f7f9f6" stroke-width="37" stroke-linecap="round" stroke-linejoin="round"/><path d="M586.5,131.7 L600.6,133.9 L639.9,140.5 L708.2,154.2 L743.8,164.3" fill="none" stroke="#f7f9f6" stroke-width="30" stroke-linecap="round" stroke-linejoin="round"/><path d="M960.5,189.5 L980.5,187.7 L994.5,186.7 L1062.9,186.4 L1098.4,184.6 L1121.1,183.2 L1143.1,181.1" fill="none" stroke="#f7f9f6" stroke-width="19" stroke-linecap="round" stroke-linejoin="round"/><path d="M888.1,695.4 L892.5,679.7" fill="none" stroke="#f7f9f6" stroke-width="37" stroke-linecap="round" stroke-linejoin="round"/><path d="M892.5,679.7 L859.4,672.9" fill="none" stroke="#f7f9f6" stroke-width="19" stroke-linecap="round" stroke-linejoin="round"/><path d="M859.4,672.9 L855.4,690.3" fill="none" stroke="#f7f9f6" stroke-width="37" stroke-linecap="round" stroke-linejoin="round"/><path d="M834.8,776.5 L821.2,834.3 L810.1,885.9" fill="none" stroke="#f7f9f6" stroke-width="37" stroke-linecap="round" stroke-linejoin="round"/><path d="M68.7,-156.3 L66.3,16.4 L65.5,81.1 L65.2,95.8" fill="none" stroke="#f7f9f6" stroke-width="17" stroke-linecap="round" stroke-linejoin="round"/><path d="M601.2,146.1 L603.7,152.0 L607.9,150.8 L611.8,150.7 L616.5,151.3 L693.2,165.6 L734.6,175.1 L747.4,179.9 L763.1,187.0 L774.3,191.2 L792.8,196.0 L800.3,197.5 L821.8,202.0 L840.6,205.2 L858.0,207.5 L874.4,209.2 L887.5,209.9 L893.6,212.8 L897.1,215.5" fill="none" stroke="#e4ebe4" stroke-width="4" stroke-linecap="round" stroke-linejoin="round" stroke-dasharray='5 6'/><path d="M553.1,144.8 L567.7,145.4 L586.1,146.1 L601.2,146.1 L600.6,133.9 L598.3,111.1 L598.0,98.5 L577.7,94.0 L555.4,91.2 L555.3,106.6 L554.2,127.7 L553.1,144.8" fill="none" stroke="#e4ebe4" stroke-width="4" stroke-linecap="round" stroke-linejoin="round" stroke-dasharray='5 6'/><path d="M908.3,709.2 L919.0,719.2 L927.8,724.1 L932.7,726.2 L971.9,742.3 L1023.6,756.2 L1031.3,758.4 L1053.6,763.9 L1070.7,769.9 L1074.2,771.3 L1076.3,772.7 L1077.6,774.5 L1078.4,777.8 L1079.3,784.6 L1081.3,788.0 L1086.9,793.3 L1093.4,797.9 L1096.9,802.0 L1098.6,805.0 L1099.0,807.9 L1097.9,810.3 L1095.1,816.9" fill="none" stroke="#e4ebe4" stroke-width="4" stroke-linecap="round" stroke-linejoin="round" stroke-dasharray='5 6'/><path d="M974.1,328.2 L1000.8,316.3 L1010.0,315.1 L1046.1,315.6 L1055.4,317.1 L1066.6,321.1 L1078.9,320.9 L1091.3,317.1 L1113.6,315.1 L1129.5,314.7" fill="none" stroke="#e4ebe4" stroke-width="4" stroke-linecap="round" stroke-linejoin="round" stroke-dasharray='5 6'/><path d="M931.1,473.2 L948.0,481.8 L982.1,488.0 L1013.7,494.1 L1022.7,490.8" fill="none" stroke="#f7f9f6" stroke-width="14" stroke-linecap="round" stroke-linejoin="round"/><path d="M1022.7,490.8 L1014.0,480.1 L985.4,474.2 L948.0,467.5 L931.1,473.2" fill="none" stroke="#f7f9f6" stroke-width="14" stroke-linecap="round" stroke-linejoin="round"/><path d="M1011.4,632.2 L1018.6,633.8 L1017.1,640.0 L1049.1,649.2 L1031.5,707.5 L1010.9,701.6 L1009.1,697.3 L931.4,675.5" fill="none" stroke="#e4ebe4" stroke-width="4" stroke-linecap="round" stroke-linejoin="round" stroke-dasharray='5 6'/><path d="M808.8,462.7 L805.1,459.6 L801.2,457.2" fill="none" stroke="#e4ebe4" stroke-width="4" stroke-linecap="round" stroke-linejoin="round" stroke-dasharray='5 6'/><path d="M960.5,189.5 L962.0,169.0" fill="none" stroke="#f7f9f6" stroke-width="37" stroke-linecap="round" stroke-linejoin="round"/><path d="M1067.2,169.8 L980.0,170.4 L962.0,169.0" fill="none" stroke="#f7f9f6" stroke-width="19" stroke-linecap="round" stroke-linejoin="round"/><path d="M1143.1,181.1 L1099.6,171.9 L1067.2,169.8" fill="none" stroke="#f7f9f6" stroke-width="19" stroke-linecap="round" stroke-linejoin="round"/><path d="M887.8,524.4 L882.7,557.0 L864.6,651.3 L859.4,672.9" fill="none" stroke="#f7f9f6" stroke-width="37" stroke-linecap="round" stroke-linejoin="round"/><path d="M943.3,388.1 L956.7,254.7 L960.5,189.5" fill="none" stroke="#f7f9f6" stroke-width="37" stroke-linecap="round" stroke-linejoin="round"/><path d="M931.6,117.9 L929.0,150.6 L928.0,168.6" fill="none" stroke="#f7f9f6" stroke-width="37" stroke-linecap="round" stroke-linejoin="round"/><path d="M306.9,591.6 L306.7,578.8 L307.1,565.7" fill="none" stroke="#e4ebe4" stroke-width="4" stroke-linecap="round" stroke-linejoin="round" stroke-dasharray='5 6'/><path d="M338.9,594.7 L323.4,592.7 L306.9,591.6" fill="none" stroke="#e4ebe4" stroke-width="4" stroke-linecap="round" stroke-linejoin="round" stroke-dasharray='5 6'/><path d="M307.1,565.7 L323.4,568.2 L333.4,569.2" fill="none" stroke="#e4ebe4" stroke-width="4" stroke-linecap="round" stroke-linejoin="round" stroke-dasharray='5 6'/><path d="M238.8,445.1 L237.6,565.5" fill="none" stroke="#e4ebe4" stroke-width="4" stroke-linecap="round" stroke-linejoin="round" stroke-dasharray='5 6'/><path d="M333.4,569.2 L337.8,570.4 L371.4,571.0 L374.5,565.6 L531.3,566.6 L546.0,566.8" fill="none" stroke="#e4ebe4" stroke-width="4" stroke-linecap="round" stroke-linejoin="round" stroke-dasharray='5 6'/><path d="M381.0,699.7 L443.2,693.7 L550.2,678.8 L572.8,675.8" fill="none" stroke="#f7f9f6" stroke-width="19" stroke-linecap="round" stroke-linejoin="round"/><path d="M-138.2,705.8 L8.4,708.1" fill="none" stroke="#f7f9f6" stroke-width="19" stroke-linecap="round" stroke-linejoin="round"/><path d="M926.3,190.9 L922.2,254.7 L917.0,301.4" fill="none" stroke="#f7f9f6" stroke-width="37" stroke-linecap="round" stroke-linejoin="round"/><path d="M901.2,435.9 L897.2,456.2 L892.3,488.8" fill="none" stroke="#f7f9f6" stroke-width="37" stroke-linecap="round" stroke-linejoin="round"/><path d="M892.3,488.8 L887.8,524.4" fill="none" stroke="#f7f9f6" stroke-width="37" stroke-linecap="round" stroke-linejoin="round"/><path d="M87.7,225.8 L83.6,291.0 L84.6,292.9" fill="none" stroke="#e4ebe4" stroke-width="4" stroke-linecap="round" stroke-linejoin="round" stroke-dasharray='5 6'/><path d="M88.6,200.5 L88.3,212.8 L87.7,225.8" fill="none" stroke="#e4ebe4" stroke-width="4" stroke-linecap="round" stroke-linejoin="round" stroke-dasharray='5 6'/><path d="M878.8,812.1 L878.8,822.6 L878.8,829.9" fill="none" stroke="#e4ebe4" stroke-width="4" stroke-linecap="round" stroke-linejoin="round" stroke-dasharray='5 6'/><path d="M885.6,785.4 L882.2,801.8 L882.0,805.9 L881.5,811.5" fill="none" stroke="#e4ebe4" stroke-width="4" stroke-linecap="round" stroke-linejoin="round" stroke-dasharray='5 6'/><path d="M881.5,811.5 L878.8,812.1" fill="none" stroke="#e4ebe4" stroke-width="4" stroke-linecap="round" stroke-linejoin="round" stroke-dasharray='5 6'/><path d="M567.7,129.2 L576.7,130.1 L586.5,131.7" fill="none" stroke="#f7f9f6" stroke-width="30" stroke-linecap="round" stroke-linejoin="round"/><path d="M587.2,109.5 L577.0,108.1 L568.3,107.5" fill="none" stroke="#f7f9f6" stroke-width="30" stroke-linecap="round" stroke-linejoin="round"/><path d="M568.3,107.5 L567.7,129.2" fill="none" stroke="#f7f9f6" stroke-width="12" stroke-linecap="round" stroke-linejoin="round"/><path d="M587.2,109.5 L577.4,99.2" fill="none" stroke="#f7f9f6" stroke-width="12" stroke-linecap="round" stroke-linejoin="round"/><path d="M586.5,131.7 L587.2,109.5" fill="none" stroke="#f7f9f6" stroke-width="12" stroke-linecap="round" stroke-linejoin="round"/><path d="M577.4,99.2 L568.3,107.5" fill="none" stroke="#f7f9f6" stroke-width="12" stroke-linecap="round" stroke-linejoin="round"/><path d="M579.0,2.1 L577.7,94.0 L577.4,99.2" fill="none" stroke="#f7f9f6" stroke-width="19" stroke-linecap="round" stroke-linejoin="round"/><path d="M421.0,119.1 L483.3,123.5 L544.8,127.2 L554.2,127.7 L567.7,129.2" fill="none" stroke="#f7f9f6" stroke-width="30" stroke-linecap="round" stroke-linejoin="round"/><path d="M204.8,92.6 L101.8,94.8 L89.8,95.1 L65.2,95.8" fill="none" stroke="#f7f9f6" stroke-width="30" stroke-linecap="round" stroke-linejoin="round"/><path d="M65.2,95.8 L40.6,97.8 L-28.4,101.8 L-110.7,107.3 L-183.8,109.9" fill="none" stroke="#f7f9f6" stroke-width="30" stroke-linecap="round" stroke-linejoin="round"/><path d="M-91.1,129.4 L-29.2,125.8 L35.3,121.0 L42.4,120.8 L64.9,120.2" fill="none" stroke="#f7f9f6" stroke-width="30" stroke-linecap="round" stroke-linejoin="round"/><path d="M-27.2,88.1 L-26.5,23.8 L15.0,31.6 L46.2,32.1 L44.0,78.6 L40.7,82.4" fill="none" stroke="#e4ebe4" stroke-width="4" stroke-linecap="round" stroke-linejoin="round" stroke-dasharray='5 6'/><path d="M688.4,305.0 L685.0,314.7 L681.5,324.6" fill="none" stroke="#e4ebe4" stroke-width="4" stroke-linecap="round" stroke-linejoin="round" stroke-dasharray='5 6'/><path d="M593.5,555.7 L570.6,555.5" fill="none" stroke="#e4ebe4" stroke-width="4" stroke-linecap="round" stroke-linejoin="round" stroke-dasharray='5 6'/><path d="M546.8,532.1 L593.9,532.8" fill="none" stroke="#e4ebe4" stroke-width="4" stroke-linecap="round" stroke-linejoin="round" stroke-dasharray='5 6'/><path d="M531.3,566.6 L531.4,581.5 L531.4,592.5" fill="none" stroke="#e4ebe4" stroke-width="4" stroke-linecap="round" stroke-linejoin="round" stroke-dasharray='5 6'/><path d="M801.7,334.0 L802.1,326.8 L799.6,312.3 L797.0,300.7" fill="none" stroke="#e4ebe4" stroke-width="4" stroke-linecap="round" stroke-linejoin="round" stroke-dasharray='5 6'/><path d="M112.1,728.5 L110.0,729.6 L110.4,747.1 L109.9,763.2 L112.4,789.3 L112.4,791.6 L111.9,794.2" fill="none" stroke="#e4ebe4" stroke-width="4" stroke-linecap="round" stroke-linejoin="round" stroke-dasharray='5 6'/><path d="M1001.2,822.4 L997.9,828.7 L995.2,833.6 L995.4,839.0 L994.7,844.7 L991.7,849.4 L987.4,851.6 L986.0,856.8 L985.3,860.4 L981.5,860.6 L977.9,862.6 L975.2,866.2 L968.6,865.7 L959.7,865.5" fill="none" stroke="#e4ebe4" stroke-width="4" stroke-linecap="round" stroke-linejoin="round" stroke-dasharray='5 6'/><path d="M1001.2,822.4 L1009.4,818.0 L1030.4,821.6 L1061.6,832.9 L1092.1,847.2 L1106.2,857.8 L1119.1,878.6 L1121.3,891.3 L1113.2,908.2 L1082.5,961.4 L1078.9,971.5 L1081.6,1001.3 L1078.3,1015.8 L1071.0,1025.5 L1073.2,1031.3" fill="none" stroke="#e4ebe4" stroke-width="4" stroke-linecap="round" stroke-linejoin="round" stroke-dasharray='5 6'/><path d="M847.2,870.6 L857.4,830.0 L865.9,791.8 L867.9,783.1" fill="none" stroke="#f7f9f6" stroke-width="37" stroke-linecap="round" stroke-linejoin="round"/><path d="M307.1,565.7 L306.5,447.8 L305.5,446.1" fill="none" stroke="#e4ebe4" stroke-width="4" stroke-linecap="round" stroke-linejoin="round" stroke-dasharray='5 6'/><path d="M44.0,412.9 L45.2,414.1" fill="none" stroke="#e4ebe4" stroke-width="4" stroke-linecap="round" stroke-linejoin="round" stroke-dasharray='5 6'/><path d="M442.4,441.1 L442.3,446.5" fill="none" stroke="#e4ebe4" stroke-width="4" stroke-linecap="round" stroke-linejoin="round" stroke-dasharray='5 6'/><path d="M41.9,511.3 L61.3,512.0 L70.1,512.2" fill="none" stroke="#e4ebe4" stroke-width="4" stroke-linecap="round" stroke-linejoin="round" stroke-dasharray='5 6'/><path d="M62.6,308.7 L43.9,308.6" fill="none" stroke="#f7f9f6" stroke-width="14" stroke-linecap="round" stroke-linejoin="round"/><path d="M192.9,438.1 L192.8,444.1" fill="none" stroke="#e4ebe4" stroke-width="4" stroke-linecap="round" stroke-linejoin="round" stroke-dasharray='5 6'/><path d="M335.3,445.2 L336.7,447.2 L338.5,446.6 L442.3,446.5 L512.4,448.1 L541.9,448.6 L548.4,448.8 L595.3,449.8 L693.1,450.4 L768.1,450.8 L770.8,451.8 L771.9,450.8" fill="none" stroke="#e4ebe4" stroke-width="4" stroke-linecap="round" stroke-linejoin="round" stroke-dasharray='5 6'/><path d="M70.1,512.2 L73.1,512.3" fill="none" stroke="#e4ebe4" stroke-width="4" stroke-linecap="round" stroke-linejoin="round" stroke-dasharray='5 6'/><path d="M77.2,442.2 L76.3,441.7" fill="none" stroke="#e4ebe4" stroke-width="4" stroke-linecap="round" stroke-linejoin="round" stroke-dasharray='5 6'/><path d="M772.1,370.7 L777.0,370.8" fill="none" stroke="#e4ebe4" stroke-width="4" stroke-linecap="round" stroke-linejoin="round" stroke-dasharray='5 6'/><path d="M693.2,426.4 L693.2,433.3 L693.1,443.8" fill="none" stroke="#e4ebe4" stroke-width="4" stroke-linecap="round" stroke-linejoin="round" stroke-dasharray='5 6'/><path d="M800.1,454.0 L801.2,457.2" fill="none" stroke="#e4ebe4" stroke-width="4" stroke-linecap="round" stroke-linejoin="round" stroke-dasharray='5 6'/><path d="M796.0,332.5 L786.0,331.6 L774.4,330.5" fill="none" stroke="#e4ebe4" stroke-width="4" stroke-linecap="round" stroke-linejoin="round" stroke-dasharray='5 6'/><path d="M599.1,275.4 L597.6,271.8 L597.8,232.1" fill="none" stroke="#e4ebe4" stroke-width="4" stroke-linecap="round" stroke-linejoin="round" stroke-dasharray='5 6'/><path d="M777.0,370.8 L786.4,371.1 L795.7,371.3" fill="none" stroke="#e4ebe4" stroke-width="4" stroke-linecap="round" stroke-linejoin="round" stroke-dasharray='5 6'/><path d="M681.5,324.6 L680.1,328.3" fill="none" stroke="#e4ebe4" stroke-width="4" stroke-linecap="round" stroke-linejoin="round" stroke-dasharray='5 6'/><path d="M633.6,432.6 L693.2,433.3 L771.8,434.2 L785.5,434.8" fill="none" stroke="#f7f9f6" stroke-width="17" stroke-linecap="round" stroke-linejoin="round"/><path d="M795.7,371.3 L800.0,371.4" fill="none" stroke="#e4ebe4" stroke-width="4" stroke-linecap="round" stroke-linejoin="round" stroke-dasharray='5 6'/><path d="M39.4,446.5 L41.5,451.4 L41.0,503.6 L38.8,506.8" fill="none" stroke="#e4ebe4" stroke-width="4" stroke-linecap="round" stroke-linejoin="round" stroke-dasharray='5 6'/><path d="M774.4,330.5 L771.0,332.6" fill="none" stroke="#e4ebe4" stroke-width="4" stroke-linecap="round" stroke-linejoin="round" stroke-dasharray='5 6'/><path d="M74.4,564.9 L76.1,562.7" fill="none" stroke="#e4ebe4" stroke-width="4" stroke-linecap="round" stroke-linejoin="round" stroke-dasharray='5 6'/><path d="M513.8,431.0 L548.7,431.4 L595.5,432.1 L633.6,432.6" fill="none" stroke="#f7f9f6" stroke-width="17" stroke-linecap="round" stroke-linejoin="round"/><path d="M193.3,420.6 L193.1,427.4 L192.9,438.1" fill="none" stroke="#e4ebe4" stroke-width="4" stroke-linecap="round" stroke-linejoin="round" stroke-dasharray='5 6'/><path d="M693.3,419.5 L693.2,426.4" fill="none" stroke="#e4ebe4" stroke-width="4" stroke-linecap="round" stroke-linejoin="round" stroke-dasharray='5 6'/><path d="M335.3,416.7 L324.2,416.5 L307.6,416.3" fill="none" stroke="#e4ebe4" stroke-width="4" stroke-linecap="round" stroke-linejoin="round" stroke-dasharray='5 6'/><path d="M307.4,445.1 L324.0,445.1 L335.3,445.2" fill="none" stroke="#e4ebe4" stroke-width="4" stroke-linecap="round" stroke-linejoin="round" stroke-dasharray='5 6'/><path d="M78.3,589.7 L79.9,586.4" fill="none" stroke="#e4ebe4" stroke-width="4" stroke-linecap="round" stroke-linejoin="round" stroke-dasharray='5 6'/><path d="M43.3,538.1 L36.8,535.9 L-38.6,535.1 L-112.4,534.4 L-118.3,532.6" fill="none" stroke="#e4ebe4" stroke-width="4" stroke-linecap="round" stroke-linejoin="round" stroke-dasharray='5 6'/><path d="M693.1,443.8 L693.1,450.4" fill="none" stroke="#e4ebe4" stroke-width="4" stroke-linecap="round" stroke-linejoin="round" stroke-dasharray='5 6'/><path d="M801.7,334.0 L796.0,332.5" fill="none" stroke="#e4ebe4" stroke-width="4" stroke-linecap="round" stroke-linejoin="round" stroke-dasharray='5 6'/><path d="M442.2,416.6 L442.3,423.4" fill="none" stroke="#e4ebe4" stroke-width="4" stroke-linecap="round" stroke-linejoin="round" stroke-dasharray='5 6'/><path d="M43.9,308.6 L-55.5,307.5 L-110.4,306.9 L-116.2,306.8" fill="none" stroke="#f7f9f6" stroke-width="14" stroke-linecap="round" stroke-linejoin="round"/><path d="M41.9,511.3 L38.8,506.8 L34.4,508.5 L-38.3,508.6 L-111.5,507.5 L-115.0,505.9 L-118.5,508.1" fill="none" stroke="#e4ebe4" stroke-width="4" stroke-linecap="round" stroke-linejoin="round" stroke-dasharray='5 6'/><path d="M307.6,416.3 L305.6,414.7 L302.0,416.2 L193.5,415.3 L83.7,414.8 L80.5,414.7 L78.0,413.2 L77.2,414.6" fill="none" stroke="#e4ebe4" stroke-width="4" stroke-linecap="round" stroke-linejoin="round" stroke-dasharray='5 6'/><path d="M111.9,794.2 L84.7,854.2" fill="none" stroke="#e4ebe4" stroke-width="4" stroke-linecap="round" stroke-linejoin="round" stroke-dasharray='5 6'/><path d="M8.4,708.1 L59.2,709.0" fill="none" stroke="#f7f9f6" stroke-width="19" stroke-linecap="round" stroke-linejoin="round"/><path d="M252.9,710.1 L273.6,709.8" fill="none" stroke="#f7f9f6" stroke-width="19" stroke-linecap="round" stroke-linejoin="round"/><path d="M617.6,-176.1 L613.0,-162.6 L598.4,-120.2 L589.7,-92.9 L582.0,-60.4 L579.6,-32.4 L579.0,2.1" fill="none" stroke="#f7f9f6" stroke-width="19" stroke-linecap="round" stroke-linejoin="round"/><path d="M572.8,675.8 L603.8,674.4 L635.5,672.0 L667.3,670.8 L721.1,671.9" fill="none" stroke="#f7f9f6" stroke-width="19" stroke-linecap="round" stroke-linejoin="round"/><path d="M721.1,671.9 L741.0,673.7 L758.8,674.8" fill="none" stroke="#f7f9f6" stroke-width="19" stroke-linecap="round" stroke-linejoin="round"/><path d="M-52.4,857.9 L-52.7,850.9 L-52.9,847.3 L-52.4,843.8 L-50.8,840.9 L-48.9,839.1 L-45.5,837.6 L-27.9,832.4 L15.7,823.5 L82.3,810.4 L100.2,806.6 L103.3,802.6 L107.6,792.4 L107.1,786.9 L105.1,763.9 L105.1,755.3 L105.4,749.5 L110.4,747.1" fill="none" stroke="#e4ebe4" stroke-width="4" stroke-linecap="round" stroke-linejoin="round" stroke-dasharray='5 6'/><path d="M905.5,147.3 L895.5,151.4 L888.4,153.4 L879.2,153.1 L810.6,141.8 L744.2,124.8 L738.4,123.6" fill="none" stroke="#e4ebe4" stroke-width="4" stroke-linecap="round" stroke-linejoin="round" stroke-dasharray='5 6'/><path d="M738.4,123.6 L729.4,121.6 L719.9,119.6" fill="none" stroke="#e4ebe4" stroke-width="4" stroke-linecap="round" stroke-linejoin="round" stroke-dasharray='5 6'/><path d="M555.4,91.2 L551.1,90.9 L381.0,79.4 L147.8,78.2 L90.1,79.1 L90.0,85.3" fill="none" stroke="#e4ebe4" stroke-width="4" stroke-linecap="round" stroke-linejoin="round" stroke-dasharray='5 6'/><path d="M90.0,85.3 L89.8,95.1 L89.2,118.7 L89.0,130.2" fill="none" stroke="#e4ebe4" stroke-width="4" stroke-linecap="round" stroke-linejoin="round" stroke-dasharray='5 6'/><path d="M89.0,130.2 L90.3,137.4" fill="none" stroke="#e4ebe4" stroke-width="4" stroke-linecap="round" stroke-linejoin="round" stroke-dasharray='5 6'/><path d="M81.7,79.7 L65.5,81.1 L49.4,82.4" fill="none" stroke="#e4ebe4" stroke-width="4" stroke-linecap="round" stroke-linejoin="round" stroke-dasharray='5 6'/><path d="M-305.4,84.6 L-301.9,87.9 L-297.9,89.4 L-193.8,90.1 L-192.1,90.1 L-183.5,90.4 L-176.1,91.1 L-164.6,93.0 L-156.7,94.5 L-148.0,94.8 L-140.6,94.8 L-62.5,90.1 L-60.5,90.0 L-28.5,88.3 L-27.2,88.1 L35.0,83.5 L40.7,82.4 L41.1,88.3" fill="none" stroke="#e4ebe4" stroke-width="4" stroke-linecap="round" stroke-linejoin="round" stroke-dasharray='5 6'/><path d="M-112.6,147.1 L-47.3,143.1 L42.6,137.7" fill="none" stroke="#e4ebe4" stroke-width="4" stroke-linecap="round" stroke-linejoin="round" stroke-dasharray='5 6'/><path d="M41.1,88.3 L40.6,97.8 L42.4,120.8 L42.6,137.7" fill="none" stroke="#e4ebe4" stroke-width="4" stroke-linecap="round" stroke-linejoin="round" stroke-dasharray='5 6'/><path d="M90.1,79.1 L81.7,79.7" fill="none" stroke="#e4ebe4" stroke-width="4" stroke-linecap="round" stroke-linejoin="round" stroke-dasharray='5 6'/><path d="M67.4,138.0 L81.0,138.0" fill="none" stroke="#e4ebe4" stroke-width="4" stroke-linecap="round" stroke-linejoin="round" stroke-dasharray='5 6'/><path d="M42.6,137.7 L61.1,138.0" fill="none" stroke="#e4ebe4" stroke-width="4" stroke-linecap="round" stroke-linejoin="round" stroke-dasharray='5 6'/><path d="M61.1,138.0 L64.8,137.9 L67.4,138.0" fill="none" stroke="#e4ebe4" stroke-width="4" stroke-linecap="round" stroke-linejoin="round" stroke-dasharray='5 6'/><path d="M49.4,82.4 L40.7,82.4" fill="none" stroke="#e4ebe4" stroke-width="4" stroke-linecap="round" stroke-linejoin="round" stroke-dasharray='5 6'/><path d="M81.0,138.0 L90.3,137.4 L95.8,136.2 L167.9,134.9 L205.5,134.5 L294.8,133.8 L299.2,134.6 L302.6,136.3 L306.0,132.4 L309.5,131.0" fill="none" stroke="#e4ebe4" stroke-width="4" stroke-linecap="round" stroke-linejoin="round" stroke-dasharray='5 6'/><path d="M309.5,131.0 L325.4,130.9 L341.4,131.7 L343.8,132.8" fill="none" stroke="#e4ebe4" stroke-width="4" stroke-linecap="round" stroke-linejoin="round" stroke-dasharray='5 6'/><path d="M555.4,91.2 L558.8,87.8 L560.7,83.8 L561.2,77.9 L563.0,-45.4 L565.9,-60.1 L570.9,-85.5 L588.6,-142.6 L590.5,-151.6 L588.6,-159.6 L587.2,-161.2 L590.4,-164.5" fill="none" stroke="#e4ebe4" stroke-width="4" stroke-linecap="round" stroke-linejoin="round" stroke-dasharray='5 6'/><path d="M597.9,-40.0 L599.9,-57.0 L604.0,-75.1" fill="none" stroke="#e4ebe4" stroke-width="4" stroke-linecap="round" stroke-linejoin="round" stroke-dasharray='5 6'/><path d="M843.5,644.7 L842.0,669.3 L841.7,672.7" fill="none" stroke="#e4ebe4" stroke-width="4" stroke-linecap="round" stroke-linejoin="round" stroke-dasharray='5 6'/><path d="M841.7,672.7 L841.5,674.7" fill="none" stroke="#e4ebe4" stroke-width="4" stroke-linecap="round" stroke-linejoin="round" stroke-dasharray='5 6'/><path d="M549.9,666.6 L549.7,661.1 L549.5,650.9" fill="none" stroke="#e4ebe4" stroke-width="4" stroke-linecap="round" stroke-linejoin="round" stroke-dasharray='5 6'/><path d="M550.0,672.7 L549.9,666.6" fill="none" stroke="#e4ebe4" stroke-width="4" stroke-linecap="round" stroke-linejoin="round" stroke-dasharray='5 6'/><path d="M549.5,650.9 L570.3,643.2 L587.9,636.9" fill="none" stroke="#e4ebe4" stroke-width="4" stroke-linecap="round" stroke-linejoin="round" stroke-dasharray='5 6'/><path d="M551.3,698.4 L551.0,693.8 L550.7,688.1" fill="none" stroke="#e4ebe4" stroke-width="4" stroke-linecap="round" stroke-linejoin="round" stroke-dasharray='5 6'/><path d="M876.7,457.3 L871.8,459.6" fill="none" stroke="#e4ebe4" stroke-width="4" stroke-linecap="round" stroke-linejoin="round" stroke-dasharray='5 6'/><path d="M862.7,330.7 L866.6,331.8 L869.4,334.1 L873.1,335.8 L876.8,339.7" fill="none" stroke="#e4ebe4" stroke-width="4" stroke-linecap="round" stroke-linejoin="round" stroke-dasharray='5 6'/><path d="M932.7,726.2 L930.3,718.3 L929.6,704.5" fill="none" stroke="#e4ebe4" stroke-width="4" stroke-linecap="round" stroke-linejoin="round" stroke-dasharray='5 6'/><path d="M929.6,704.5 L929.4,699.4 L930.2,689.4 L930.8,682.4" fill="none" stroke="#e4ebe4" stroke-width="4" stroke-linecap="round" stroke-linejoin="round" stroke-dasharray='5 6'/><path d="M930.8,682.4 L931.4,675.5 L932.5,666.3 L934.2,655.3 L935.8,645.5 L936.6,634.5 L934.8,621.2 L935.6,612.3 L939.8,601.7 L946.7,590.9 L949.2,584.5 L949.9,579.3 L947.4,566.3 L947.5,558.6 L949.9,553.2 L959.5,540.7 L976.4,516.7 L979.2,501.4 L980.7,494.7" fill="none" stroke="#e4ebe4" stroke-width="4" stroke-linecap="round" stroke-linejoin="round" stroke-dasharray='5 6'/><path d="M980.7,494.7 L982.1,488.0 L985.4,474.2 L987.1,468.1" fill="none" stroke="#e4ebe4" stroke-width="4" stroke-linecap="round" stroke-linejoin="round" stroke-dasharray='5 6'/><path d="M794.8,647.1 L797.5,647.3 L802.6,650.7 L810.1,653.6 L818.9,654.7 L828.4,654.0 L835.9,650.8 L843.5,644.7" fill="none" stroke="#e4ebe4" stroke-width="4" stroke-linecap="round" stroke-linejoin="round" stroke-dasharray='5 6'/><path d="M771.0,641.8 L782.8,644.5 L794.8,647.1" fill="none" stroke="#e4ebe4" stroke-width="4" stroke-linecap="round" stroke-linejoin="round" stroke-dasharray='5 6'/></g><g><path d="M550.7,402.6 L550.5,392.7 L551.8,392.6 L556.6,392.6 L560.7,392.4 L562.2,389.4 L564.7,386.4 L568.6,383.9 L573.5,383.0 L578.7,384.1 L582.5,386.6 L584.8,389.2 L586.3,392.9 L590.1,393.2 L594.9,393.3 L596.3,393.4 L594.5,403.0 L584.6,403.0 L582.6,405.0 L579.5,406.8 L579.3,409.8 L577.5,409.8 L576.7,410.9 L575.4,411.9 L573.3,412.5 L571.1,412.0 L569.7,410.8 L568.9,409.5 L567.1,409.5 L567.1,406.5 L564.1,404.9 L562.0,402.7 L550.7,402.6 Z" fill="#a9cbc5" stroke="#8fb5ae" stroke-width="2"/><circle cx="573" cy="399" r="26" fill="none" stroke="#8fb5ae" stroke-width="1.5" stroke-dasharray="3 4"/></g><g><text x="323" y="579" transform="rotate(1 323 579)" text-anchor="middle" font-family="Georgia,serif" font-size="14" letter-spacing="2.5" fill="#75897a" style="text-transform:uppercase" paint-order="stroke" stroke="#eef2ed" stroke-width="4">Democracy Drive</text><text x="601" y="294" transform="rotate(13 601 294)" text-anchor="middle" font-family="Georgia,serif" font-size="14" letter-spacing="2.5" fill="#75897a" style="text-transform:uppercase" paint-order="stroke" stroke="#eef2ed" stroke-width="4">Freedom Drive</text><text x="61" y="414" transform="rotate(-89 61 414)" text-anchor="middle" font-family="Georgia,serif" font-size="14" letter-spacing="2.5" fill="#75897a" style="text-transform:uppercase" paint-order="stroke" stroke="#eef2ed" stroke-width="4">Explorer Street</text><text x="324" y="429" transform="rotate(-90 324 429)" text-anchor="middle" font-family="Georgia,serif" font-size="14" letter-spacing="2.5" fill="#75897a" style="text-transform:uppercase" paint-order="stroke" stroke="#eef2ed" stroke-width="4">Library Street</text><text x="442" y="430" transform="rotate(1 442 430)" text-anchor="middle" font-family="Georgia,serif" font-size="14" letter-spacing="2.5" fill="#75897a" style="text-transform:uppercase" paint-order="stroke" stroke="#eef2ed" stroke-width="4">Market Street</text><text x="928" y="169" transform="rotate(1 928 169)" text-anchor="middle" font-family="Georgia,serif" font-size="14" letter-spacing="2.5" fill="#75897a" style="text-transform:uppercase" paint-order="stroke" stroke="#eef2ed" stroke-width="4">New Dominion Parkway</text><text x="931" y="473" transform="rotate(-82 931 473)" text-anchor="middle" font-family="Georgia,serif" font-size="14" letter-spacing="2.5" fill="#75897a" style="text-transform:uppercase" paint-order="stroke" stroke="#eef2ed" stroke-width="4">Reston Parkway</text><text x="785" y="452" transform="rotate(-89 785 452)" text-anchor="middle" font-family="Georgia,serif" font-size="14" letter-spacing="2.5" fill="#75897a" style="text-transform:uppercase" paint-order="stroke" stroke="#eef2ed" stroke-width="4">Presidents Street</text><text x="573" y="365" transform="rotate(0 573 365)" text-anchor="middle" font-family="Georgia,serif" font-size="14" letter-spacing="2.5" fill="#75897a" style="text-transform:uppercase" paint-order="stroke" stroke="#eef2ed" stroke-width="4">Fountain Square</text></g>
<text x="992" y="692" text-anchor="end" font-family="Georgia,serif" font-size="10" fill="#8a9a8c">Map data © OpenStreetMap contributors</text>
</svg>